<?xml version="1.0" standalone="no"?>
<!DOCTYPE svg PUBLIC "-//W3C//DTD SVG 1.1//EN" "http://www.w3.org/Graphics/SVG/1.1/DTD/svg11.dtd">
<svg xmlns="http://www.w3.org/2000/svg">
<metadata>Generated by Fontastic.me</metadata>
<defs>
<font id="rpg-icon" horiz-adv-x="512">
<font-face font-family="rpg-icon" units-per-em="512" ascent="480" descent="-32"/>
<missing-glyph horiz-adv-x="512" />

<glyph glyph-name="dagger" unicode="&#97;" d="M417 87c-7-6-11-14-14-23l-78 79 44 45 79-79c-8-2-16-7-23-13z m-209 202l-87 98 98-86 91-81 15 15c-91 100-138 168-176 212 0 0-40-13-123 39 0 0 7-121 252-297l10 9z m155-82c5 6 5 14-1 20-5 5-14 6-19 0l-58-57c-5-6-5-14 1-20 5-5 14-6 19 0z m123-124c-13 13-35 13-48 0l-8-9c-14-13-14-34 0-48z"/>
<glyph glyph-name="sword" unicode="&#98;" d="M492 489l-84-14-211-212c3-5 5-11 5-17 0-6-2-12-5-16-5 1-10 2-16 2-15 0-30-7-39-17l-10 9 18 17c-5 6-9 11-13 17l-20-19-13 13 22 22c-5 7-9 13-13 20l-41-41 58-58c-1-5-2-10-2-16 0-8 2-15 5-22l-73-72-14 15-25-25 15-15-9-8 27-27 9 8 14-14 25 24-14 15 72 72c6-3 14-4 21-4 6 0 11 0 16 2l59-58 41 41c-7 4-14 8-21 12l-21-22-14 14 20 19c-6 4-12 9-18 13l-17-17-9 9c11 10 18 24 18 40 0 5-1 10-3 15 5 3 11 5 17 5 6 0 11-2 16-5l212 212z m-66-53l13-13-192-191-13 13z m-245-222c20 0 35-16 35-35 0-19-15-35-35-35-19 0-34 16-34 35 0 19 15 35 34 35z"/>
<glyph glyph-name="techno-heart" unicode="&#99;" d="M140 488c-2 0-4 0-5 0l172-258 146 0c15 17 28 35 36 57l-97 0c-8-18-25-31-46-31-27 0-49 22-49 49 0 12 3 22 10 30l-49 78c0 0 0 0 0 0-1 2-3 4-4 6-30 48-73 70-114 69z m228-2c-36-1-72-18-100-58l204 0c-25 37-64 58-104 58z m-254 0c-11-3-22-7-33-13 11-10 18-23 18-38 0-13-5-24-13-33l43-68 86 0z m-64-20c-18 0-31-14-31-31 0-17 13-31 31-31 17 0 30 14 30 31 0 17-13 31-30 31z m232-57l39-61c8 4 16 6 25 6 27 0 49-22 49-49l99 0c3 12 4 25 3 39 0 24-6 46-15 65z m-259-16c-4-15-6-31-6-49 1-3 1-6 1-10l89 0-36 57c-6-4-14-5-21-5-10 0-19 2-27 7z m323-57c-17 0-31-14-31-31 0-17 14-31 31-31 17 0 31 14 31 31 0 17-14 31-31 31z m-325-20c4-17 10-32 19-47l157 0 2-4 78-123 9-14-74 0c-1-7-4-13-8-19 22-24 41-52 54-87 35 91 118 135 176 190l-137 0-3 4-67 100z m32-65c21-27 49-51 79-76 8 8 20 12 32 12 24 0 44-17 48-40l40 0-66 104z m111-82c-17 0-31-14-31-31 0-17 14-31 31-31 17 0 30 14 30 31 0 17-13 31-30 31z"/>
<glyph glyph-name="shoulders" unicode="&#100;" d="M203 495l-16-159c-1-11 3-16 10-20 7-4 19-6 31-4 11 1 23 5 29 10 7 6 9 10 6 17z m126-52c59-53 93-121 106-182 7-32 7-62 1-87-6-24-18-44-38-54-12-5-31-7-58-8-27-2-61-1-97 1-67 5-140 16-193 40 1-9 2-17 5-26 1-6 7-12 18-19 11-6 26-12 45-17 37-10 85-17 134-20 49-2 98-1 135 4 19 3 34 6 45 11 12 4 17 9 18 12 40 110 25 198-7 257-16 30-36 53-56 68-19 13-36 23-58 20z m-23-3c-17-4-36-10-56-18l30-77c5-14-1-28-12-37-10-8-24-13-38-14-15-2-30 0-42 7-12 6-20 20-19 37l5 43c-13-9-25-18-37-28-12-11-24-23-35-36l71-69c8-9-2-34-7-41-7-11-18-18-30-23-11-4-25-6-37-1-13 4-24 14-30 29l-1 0-9 32c-8-22-12-46-11-71 49-24 127-37 196-42 35-2 69-3 95-2 26 2 47 5 51 8 14 6 24 20 29 41 5 22 5 49-2 80-7 34-22 71-45 107l-16-181 0 0c-2-8-5-14-11-18-5-4-11-6-18-7-13-2-27 1-40 7-14 5-26 14-34 24-8 11-11 26-3 39l1 1 120 137c-17 26-39 51-65 73z m-258-95l37-126c5-11 12-17 19-19 8-3 17-2 26 1 9 3 17 9 22 16 4 6 6 13 6 20z m302-29l-85-97c-3-6-2-11 3-18 5-7 15-14 26-19 11-4 23-6 31-5 4 0 7 2 9 3 2 2 3 4 4 7z m-300-214c-5-1-7-3-9-5-2-3-3-8-3-13 1-11 9-23 20-28 128-52 280-43 398-27 13 1 22 55-1 48-5-3-9-6-16-8-13-5-30-9-50-12-39-5-88-6-138-4-50 3-99 10-138 20-19 6-36 12-49 20-5 3-10 6-14 9z"/>
<glyph glyph-name="rolling-dice" unicode="&#101;" d="M139 477l-110-79 96-29 111 87z m113-31l-118-90 51-131 8 7 5 16c-6 4-10 12-10 20 1 8 6 14 11 14 2 0 3 0 4-1 1 0 2-1 3-1l8 29c0 1 0 1 1 1 0 0 0 0 0 0 0 1 0 1 0 1 0 0 0 0 0 0 0 0 0 1 0 1 1 0 1 0 1 1 0 0 0 0 0 0 0 0 0 0 0 0 1 0 1 1 1 1 0 0 0 0 0 0 0 0 0 0 1 0 0 0 0 0 0 0 0 1 0 1 0 1 0 0 1 0 1 0 0 0 0 0 0 0 0 0 0 0 0 0 1 0 1 0 1 0 0 0 0 1 0 1 0 0 1 0 1 0 0 0 0 0 0 0 0 0 1 0 1 0 0 0 0 0 0 0 0 0 0 0 0 0 0 0 0 0 0 0l34 3c1 6 5 9 10 10 1 0 2-1 4-1 3-1 6-4 8-7l13 1-39 124z m-115-8c9 0 14-4 13-9-1-5-11-11-22-12-11-1-18 3-16 9 1 6 11 11 21 12 2 0 3 0 4 0z m100-24c0 0 0 0 0 0 2 0 3 0 4 0 7-2 13-12 12-22 0-10-7-16-14-13-8 2-13 12-13 22 1 8 6 13 11 13z m-213-34l47-114 94-40-46 125z m148-17c1 0 3 0 4-1 7-2 13-12 12-22-1-9-7-15-15-13-7 3-13 12-12 22 1 8 5 14 11 14z m-75-13c5 0 12-6 17-15 5-10 5-18 0-20-6-1-14 6-18 15-5 10-5 18 0 20 0 0 1 0 1 0z m263-40l-112-10 114-80 114 17-116 73z m-289-10c5 0 12-6 17-15 5-10 4-18-1-20-5-1-13 6-18 15-4 10-4 19 1 20 0 0 0 0 1 0z m157-8l-41-154 115-99 47 168z m127-11c6 0 14-2 20-5 10-5 13-11 7-14-5-3-18-2-28 3-10 5-14 11-8 14 2 2 5 2 9 2z m133-60l-121-18-47-168 116 32z m-182-11c1 0 3 0 4-1 9-4 15-18 13-32-1-13-9-21-18-18-9 4-14 18-13 32 1 11 7 19 14 19z m154-12c3 0 6-1 8-4 4-7 1-19-6-28-8-9-18-11-22-4-4 7-1 19 6 28 5 5 10 8 14 8z m-69-10c4 0 6-2 8-5 4-6 1-19-6-28-8-9-17-11-21-4-5 7-2 20 6 29 4 5 9 7 13 8z m-174-14c2 0 3 0 5-1 8-3 14-18 12-31-1-14-9-22-18-18-8 4-14 18-12 31 1 12 6 19 13 19z m213-61c3 1 6-1 7-4 4-6 2-19-6-28-7-9-17-11-21-4-4 7-2 19 6 28 4 5 9 8 14 8z m-71-19c4 0 6-1 8-4 4-7 1-20-6-29-8-9-17-10-21-4-5 7-2 20 6 29 4 5 9 8 13 8z"/>
<glyph glyph-name="ring2" unicode="&#102;" d="M255 389c-69 0-137-19-183-55 1-15 2-36 10-49 110 61 236 61 347 0 7 13 9 34 9 49-46 36-114 55-183 55z m200-76c0-3-1-6-1-9-3-13-6-27-16-36-15-19-41-31-73-39-33-8-71-12-110-12-38 0-77 4-110 12-31 8-58 20-72 39-12 12-16 28-18 43-14-27-11-62 1-98 14-43 73-90 199-90 126 0 185 47 200 90l0 0 0 0c15 37 15 72 0 100z"/>
<glyph glyph-name="aura" unicode="&#103;" d="M321 499c-17-35-39-60-63-60-25 0-47 25-64 59 1-39-10-91-31-105-21-14-49 12-79 32 18-34 43-67 30-92-12-25-59-36-93-36 30-19 79-46 79-74 0-28-49-54-79-73 34 0 81-12 93-36 12-25-9-56-34-86 45 16 66 6 86-11l32 0c-43 36-72 108-72 192-1 119 58 215 131 215 72 0 131-96 131-215 0-84-29-156-72-192l28 0c19 15 39 26 89 10-26 30-42 62-30 87 13 25 57 36 91 36-30 19-76 45-76 73 0 28 46 55 76 74-34 0-78 11-91 36-12 25 10 58 28 92-29-20-58-46-79-32-21 14-32 66-31 106z m-69-94c-20-3-37-26-37-55 0-17 5-31 14-41l10-13-16-3c-11-2-19-7-25-17-7-9-12-22-16-37-7-27-8-60-8-90l36 0 0-8 10-123 76 0 8 123 0 8 35 0c0 30-1 64-7 91-3 15-8 28-15 37-7 10-15 15-27 17l-16 3 10 12c8 10 13 25 13 41 0 31-19 55-41 55-3 0-4 0-4 0z"/>
<glyph glyph-name="back" unicode="&#104;" d="M257 494c-7-7-12-15-21-23-8-8-18-15-34-20 31-37 76-73 108-87 73-7 111 7 133 24 18 14 27 32 35 48-77 5-156 11-221 58z m-32-93c-19-38-41-72-65-100-41-48-87-79-133-86 5-19 9-35 12-46 5-14 9-22 14-26 5-5 13-7 27-7 11 0 26 2 46 5 49 10 75 24 92 40 16 17 24 37 34 61-2-35-13-56-28-72-12-14-27-23-42-32-5-2-11-4-17-6 2-2 3-5 5-7 5-10 8-21 11-32 4-11 8-22 12-29 4-6 8-9 14-9 14 2 31 12 50 24 18 12 37 26 56 34 2 1 4 2 5 2 56 30 66 74 67 86 0-16-3-28-6-38-4-16-11-27-16-38-3-2-6-5-9-8 6-2 12-5 17-10 16-14 27-39 35-80 15 14 33 36 48 60 19 31 33 68 33 101 0 39-17 76-27 118-5 22-7 45-4 69-1 0-1-1-2-1-27-21-71-35-147-28l-2 0-1 1c-25 10-53 30-79 54z m45-160l1-1c-1-1-1-1-1-2 0 1 0 2 0 3z m133-39l1 0c0 0 0-1-1-2 0 1 0 2 0 2z"/>
<glyph glyph-name="belt" unicode="&#105;" d="M42 363c-8-8-13-12-16-18 0-1-1-2-1-2 3-3 8-7 16-11 0 2 0 3 1 5 1 1 4 5 12 13z m428 0l-12-13c8-8 11-12 12-13 1-2 1-3 1-5 8 4 13 8 16 11 0 0-1 1-1 2-3 6-8 10-16 18z m-445-43l0-41c3-4 9-8 18-13 0 8 0 17 0 25 0 7 1 13 2 19-1 0-2 1-3 1-6 3-12 6-17 9z m462 0c-5-3-11-6-17-9-1 0-2-1-3-1 1-6 2-12 2-19 0-8 0-17 0-25 9 5 15 9 18 13z m-288-4l-29-117 77-50 0 53 32 16 0 37-32 16 0 45z m66 0l0-34 32-16 0-59-32-16 0-42 77 50-29 117z m-203-12c0-4-1-9-1-14-1-11 0-22 0-31 10-4 21-7 33-10 3 0 6-1 9-2 0 12 1 25 2 37 0 3 1 6 1 10-3 0-6 1-10 2-11 2-23 5-34 8z m388 0c-11-3-23-6-34-8-4-1-7-2-10-2 0-4 1-7 1-10 1-12 2-25 2-37 3 1 6 2 9 2 12 3 23 6 33 10 0 9 1 20 0 31 0 5-1 10-1 14z m-326-13c0-3-1-6-1-9-1-12-2-26-2-38 14-2 27-4 41-5l11 46c-14 1-30 3-49 6z m264 0c-19-3-35-5-49-6l11-46c14 1 27 3 41 5 0 12-1 26-2 38 0 3-1 6-1 9z m-361-37l2-25c34-14 77-24 123-30l5 22c-21 2-44 6-67 11-18 4-36 9-50 15-5 2-9 4-13 7z m458 0c-4-3-8-5-13-7-14-6-32-11-50-15-23-5-46-9-67-11l5-22c46 6 89 16 123 30z"/>
<glyph glyph-name="chest" unicode="&#106;" d="M157 486l-68-13c0-59-2-120-43-168 58-40 143-54 201-42l0 99-139 62 8 16 140-62 140 62 8-16-139-62 0-99c58-12 143 2 202 42-42 48-44 109-44 168l-68 13c-13-14-20-28-33-40-13-14-32-23-66-23-33 0-53 9-66 23-13 12-20 26-33 40z m-103-207c22-48 42-104 49-160l65-23c4 53 28 104 63 146-55-6-122 6-177 37z m404 0c-55-31-122-43-177-37 35-42 59-93 63-146l66 23c6 57 26 112 48 160z m-202-36c-40-43-68-98-71-153l62-21 0 107 18 0 0-107 62 21c-3 55-30 110-71 153z m152-143l-111-39 0-19 110 44c0 5 1 9 1 14z m-304-1c1-4 1-8 1-13l110-44 0 19z m175-44l-23-9-23 8 0-19 23-9 23 9z"/>
<glyph glyph-name="target" unicode="&#107;" d="M247 480l0-23c-104-5-187-88-192-192l-23 0 0-18 23 0c5-104 88-187 192-192l0-23 18 0 0 23c104 5 187 88 192 192l23 0 0 18-23 0c-5 104-88 187-192 192l0 23z m0-41l0-55 18 0 0 55c94-5 169-80 174-174l-55 0 0-18 55 0c-5-94-80-169-174-174l0 55-18 0 0-55c-94 5-169 80-174 174l55 0 0 18-55 0c5 94 80 169 174 174z m0-151l0-23-23 0 0-18 23 0 0-23 18 0 0 23 23 0 0 18-23 0 0 23z"/>
<glyph glyph-name="boots" unicode="&#108;" d="M128 489c-11-11-20-27-26-41 6-20 11-41 27-55 19 14 28 34 36 56-10 12-21 29-37 40z m256 0c-16-11-27-28-37-40 8-22 17-42 36-56 16 14 21 35 27 55-6 14-15 30-26 41z m-162-23c-11-3-25-7-37-13-8-29-22-55-46-75l17-177-20 9-15 168c-16 16-28 43-38 71-4 2-7 4-11 5 6-83 26-186 47-274 3 1 6 2 9 3 29-7 57-29 82-53-18 110 46 222 12 336z m68 0c-34-114 30-226 12-336 25 24 53 46 82 53 3-1 6-2 9-3 21 88 41 191 47 274-4-1-7-3-11-5-10-28-22-55-38-71l-15-168-20-9 17 177c-24 20-38 46-46 75-12 6-26 10-37 13z m-161-302c-13-6-28-18-33-34 24-5 53-19 76-41l3-27 34 12-1 29c-20 29-51 53-79 61z m254 0c-28-8-59-32-79-61l-1-29 34-12 3 27c23 22 52 36 76 41-5 16-20 28-33 34z m-292-52l-53-39c-10-15-12-33-8-47 52-9 88 3 129 26l-4 29c-15 15-34 26-64 31z m330 0c-30-5-49-16-64-31l-4-29c41-23 77-35 129-26 4 14 2 32-8 47z"/>
<glyph glyph-name="gloves" unicode="&#109;" d="M323 475c-2 0-4 0-6-1l-52-85c62-5 92-34 103-61l-16-7c-8 19-27 41-73 48 19-13 34-29 41-49l-17-6c-8 20-27 38-55 54-10-4-62-25-80-31-37-13-57-39-96-83l0-1 0 0c-6-6-9-12-10-17 0-4 1-7 3-9 4-4 14-6 29 4l0 0 75 49 11-15-51-45-94-87c-12-11-12-22-9-25 1-2 3-4 8-3 5 0 13 2 23 9 30 20 58 41 82 65l0 1 0 0c0 0 1 0 1 0l0 0c3 1 7 2 10 3 6 2 13 6 13 7 1 1 3 7 3 13 0 5 0 10 0 10l18 1c0 0 0-6 0-12-1-7-1-15-6-22-6-8-14-11-22-14-2-1-4-1-6-2-24-33-55-57-84-83-10-9-14-17-15-22-1-5 0-6 3-8 5-4 21-4 38 11 33 31 65 61 90 97l0 0c2 0 5 1 8 3 5 3 11 8 12 9 0 1 2 7 3 13 0 5 0 10 0 10l18 0c0 0 0-5 0-12-1-7-2-14-6-21-5-7-12-11-18-14-2-1-3-2-5-3-16-30-40-56-65-83-6-6-7-10-6-13 0-3 2-6 5-8 7-4 20-5 31 7 14 14 26 29 37 45 9 17 19 34 28 51l0 0c1 0 4 1 8 3 5 2 10 5 10 6 1 0 3 6 4 11 1 5 1 9 1 9l18-1c0 0 0-5-1-11-1-6-3-13-7-19-5-7-12-9-17-12-1 0-2-1-3-1-7-16-16-31-25-46-4-6-8-13-11-19-3-6-3-10-3-13 1-3 3-5 5-6 5-3 13-2 21 8 58 80 127 161 157 265 2 8 7 12 13 17 6 6 13 12 20 17 7 6 14 12 19 17 3 3 5 6 6 8-2 9-6 19-11 28-11-7-23-14-33-19 6 15 10 31 12 47-5 5-10 10-16 15-22 17-46 28-68 28z m-167-4c-1 0-1 0-2 0-13-1-29-5-44-14-9-4-16-10-24-16 3-19 7-38 14-55-12 7-29 15-42 25-5-9-8-17-10-25 1-3 4-8 9-15 6-7 14-15 23-23 8-8 17-15 24-22 2-2 3-3 5-5 16 15 32 25 53 33 14 4 57 21 73 28l-53 77c-6 8-14 12-26 12z m240-167c-5-14-10-29-16-42l30-16 0 0c16-10 26-6 29-2 2 2 3 5 2 9-1 4-4 10-11 16l0 1 0 0c-12 14-24 25-34 34z m-27-66c-12-25-26-49-41-71 27-34 61-62 96-89 18-15 34-13 39-9 2 2 3 4 2 8-2 5-6 12-17 21-32 24-66 48-93 81l13 13c26-23 55-42 87-60 10-6 18-8 23-8 5 0 7 1 9 3 2 4 2 15-11 25l-100 80z m-52-88c-5-8-11-16-16-24 5-9 11-18 17-27 12-14 25-28 39-41 13-12 26-10 32-5 4 2 5 5 5 8 0 3-1 7-7 13-26 25-51 48-70 76z m-29-41c-6-8-12-16-18-24 8-9 15-18 23-27 8-10 17-9 21-7 3 2 4 4 5 7 0 2 0 7-4 12-4 6-8 13-12 19-5 7-10 13-15 20z"/>
<glyph glyph-name="helmet" unicode="&#110;" d="M256 480c-2-1-5-1-7-2 0-36-3-80-18-121l25 4 25-4c-15 41-18 85-18 121-2 1-5 1-7 2z m-25-8c-55-20-115-64-132-139l111 20c17 39 20 82 21 119z m50 0c1-37 4-80 21-119l111-20c-17 75-77 119-132 139z m-34-131l-162-29c-5-6-8-15-8-24 0-9 3-17 7-23 10 0 31 0 55-2 26-2 54-6 73-15l3-2 2-3c8-26 12-70 14-113 2-40 2-77 2-94l23-23 23 23c0 24 0 62 2 100 2 41 6 81 14 107l2 3 3 2c19 9 47 13 73 15 24 2 45 2 55 2 4 6 7 14 7 23 0 9-3 18-8 24l-162 29 0-117-18 0z m-23-25l8-40c-16 0-136-4-136 12 0 16 96 28 128 28z m64 0c32 0 128-12 128-28 0-16-120-12-136-12z m-203-69l-21-135c50-13 101-25 151-53 0 19-1 44-2 71-2 39-6 81-12 103-15 6-40 10-64 12-22 2-42 2-52 2z m342 0c-10 0-30 0-52-2-24-2-49-6-64-12-6-22-10-60-12-97-1-28-2-55-2-77 50 28 101 40 151 53z m-313-46l80-16-4-18-80 16z m284 0l4-18-80-16-4 18z m-300-46l96-18-4-18-96 18z m316 0l4-18-96-18-4 18z"/>
<glyph glyph-name="legs" unicode="&#111;" d="M144 475c-26 0-63-26-65-83l65-29 72 29c-3 56-46 83-72 83z m224 0c-26 0-69-27-72-83l72-29 65 29c-2 57-39 83-65 83z m-291-100c-11-40-13-90-10-141 46-10 93-7 141 0 9 50 13 99 4 139l-65-26-3-1-3 1z m358 0l-64-28-3-1-3 1-65 26c-9-40-5-89 4-139 48-7 95-10 141 0 3 51 1 101-10 141z m-250-160c-32-4-63-5-95-1 12-12 23-25 35-36 3-2 5-4 7-6 18 12 36 26 53 43z m142 0c17-17 35-31 53-43 2 2 4 4 7 6 12 11 23 24 35 36-32-4-63-3-95 1z m-259-2c1-25 4-49 6-73 15 6 29 14 44 23-1 1-2 2-4 3-16 16-30 32-46 47z m376 0c-16-15-30-31-46-47-2-1-3-2-4-3 15-9 29-17 44-23 2 24 5 48 6 73z m-240-2c-19-20-39-36-59-50 13-9 27-17 45-22 4 24 10 48 14 72z m104 0c4-24 10-48 14-72 18 5 32 13 45 22-20 14-40 30-59 50z m-177-59c-16-10-32-18-48-25 12-19 27-34 45-48 19 13 36 28 51 47-19 6-35 15-48 26z m250 0c-13-11-29-20-48-26 15-19 32-34 51-47 18 14 33 29 45 48-16 7-32 15-48 25z m-305-43c2-23 3-45 4-64 11 8 23 16 34 24-14 12-27 25-38 40z m360 0c-11-15-24-28-38-40 11-8 23-16 34-24 1 19 2 41 4 64z m-252-2c-13-15-28-27-43-39 11-8 23-16 35-24 1 19 4 40 8 63z m144 0c4-23 7-44 8-63 12 8 24 16 35 24-15 12-30 24-43 39z m-201-49c-13-9-26-18-39-27 26-13 53-11 79 0-13 9-27 18-40 27z m258 0c-13-9-27-18-40-27 26-11 53-13 79 0-13 9-26 18-39 27z"/>
<glyph glyph-name="crossed-swords" unicode="&#112;" d="M479 490c-7 0-15-3-24-13l-126-125c0 0 0 0 0 0l-60-61 0 0-13-12 0 0-23-23 0 0-12-12 0 0-31-31c0 0 0 0 0 0l-56-56 23-23 320 321c19 19 15 35 2 35z m-446 0c-13 0-17-17 2-35l186-186 22 22-44 45c0 0 0 0 0-1l-142 142c-9 9-18 13-24 13z m235-36c-10-42-13-80-28-122-22 17-31 42-44 64 0-11 1-23 2-34l58-58 78 79c2 7 3 14 5 21-22-29-43-45-72-74-7 46 0 78 1 124z m-180-113c0 0 0 0 0 0 0-5 104-78 96-83-13-9-58-31-83-45 19 3 53 8 72 8l35 35-64 64c-27 10-54 22-56 21z m245-56l-29-29 56-56c11-1 22-1 33-1-25 16-72 43-72 50 0 7 63 22 95 32-27 2-55-4-83 4z m-42-42l-22-22 86-87 23 23-45 44 0 0z m-35-35l-58-57c1-15 1-29 0-41 11 27 18 52 46 75 14-12 25-41 37-61-1 19-7 52-5 65l-20 19z m-144-51l-13-13 45-45 13 13-45 45z m288 0l-45-45 0 0 13-13 45 45-13 13z m-306-30l-10-10 33-33 10 10z m324 0l-33-33 10-10 33 33z m-347-23l-49-50 32-32 11 11 11-11 18 18-11 10 21 21-10 10-39-39-13 13 39 39-10 10z m370 0l-10-10 39-39-13-13-39 39-10-10 50-49 32 32-11 11 11 11-18 18-10-11-21 21z"/>
<glyph glyph-name="amulet" unicode="&#113;" d="M256 495c-80 0-147-12-147-86 3-47 28-49 48-88 33-65 26-71 43-109 1-2 2-5 3-8 10-2 19-4 27-4l2 4-41 91c-24 59-66 81-66 112 1 41 29 70 130 69 105 0 131-27 132-69 1-21-44-58-64-115l-48-92c11 0 24 3 36 7 1 1 2 3 3 4 12 41 12 46 43 108 22 38 41 49 46 90 0 74-67 86-147 86z m-4-278l-14-30c-23 1-56 13-74 20 1-13 15-43 16-58l-28-6 28-31c0-25-17-57-23-75 5 1 31 10 37 10l-3-30 50 28c-1 1-1 3-1 4 0 7 5 13 12 14 7-1 12-7 12-14 0-1 0-3 0-4l49-28-3 30c7 0 32-9 38-10-7 18-24 50-24 75l28 31-27 6c0 15 14 45 16 58-19-7-51-19-75-20l-14 30z m-76-24c16-6 40-15 56-15l-5-9c5-2 9-6 9-12 0-7-6-13-13-13-7 0-12 5-13 11l-20-4c-1 11-9 30-14 42z m152 0c-5-12-13-31-13-42l-20 4c-1-6-7-11-13-11-8 0-14 6-14 13 0 6 4 10 9 12l-5 9c17 0 41 9 56 15z m-76-35l11-19c-2-1-4-3-4-6 0-3 3-6 6-6 3 0 6 2 6 5l27-6-18-19c-1 1-3 2-5 2-4 0-6-3-6-6 0-3 2-6 6-6 1 0 1 0 2 0l3-26-23 10c0 1 0 1 0 2 0 3-2 5-5 6-3-1-5-3-5-6 0-1 0-1 0-2l-23-10 3 26c1 0 2 0 2 0 4 0 7 3 7 6 0 3-3 6-7 6-2 0-3-1-5-2l-18 19 27 6c0-3 3-5 6-5 3 0 6 3 6 6 0 3-1 5-4 6l11 19z m51-52l0 0c4 0 8-2 11-5l0 1c0-1 0-1 0-1 2-2 3-5 3-8 0 0 0-1 0-2 4-14 9-30 12-39-2 1-17 4-20 4l-3 24c-1 0-2 0-4 0-7 0-13 6-13 13 0 5 2 9 6 11 0 0 0 0 0 0 1 0 1 0 1 0 0 1 1 1 1 1 2 1 4 1 6 1z m-102 0c2 0 5 0 6-1 1 0 1 0 2-1 0 0 0 0 0 0 0 0 0 0 0 0 4-2 6-6 6-11 0-8-5-13-13-13-1 0-3 0-4 0l-3-24c-3 0-17-4-20-4 4 9 8 25 13 39-1 1-1 2-1 2 0 3 2 6 3 8 0 0 0 0 0 0l1 0c2 3 6 5 10 5z"/>
<glyph glyph-name="shield" unicode="&#114;" d="M51 486c-1-43 3-86 12-129l50 12c-2 19-4 39-3 59l0 9 49 0 0 49z m306 0l0-49 46 0 1-9c0-20-1-40-4-59l51-12c9 43 13 86 12 129z m-131-2l0-45 65 0 0 45z m-48-15l0-51-50 0c1-18 2-37 5-55l1-9-50-11c3-14 7-27 11-41l41 6 51-107-32-28c8-12 15-23 23-34l43 31 5-7c10-11 20-23 31-35 11 12 21 23 31 35l5 7 42-31c8 11 16 23 23 34l-31 28 50 107 41-6c4 14 8 27 11 41l-49 11 1 9c3 18 4 37 4 55l-46 0 0 51-29 0 0-49-103 0 0 49-29 0z m-14-80l186 0 0-9c2-73-28-138-86-200l-7-7-7 7c-58 62-88 127-86 200z m19-18c1-61 25-116 74-170 49 54 73 109 74 170z m-57-83l-55-8 53-111 40 37z m262 0l-39-82 41-37 52 111z m-170-143l-43-32c24-33 51-64 82-95 31 31 58 62 82 95l-43 31c-10-12-21-24-32-36l-7-6-7 6c-12 12-22 24-32 37z"/>
<glyph glyph-name="ring1" unicode="&#115;" d="M103 478c-7-7-19-20-32-35 25-3 56-11 85-20 18-5 36-12 50-17 7-3 13-6 18-8 5-3 8-4 11-8l-12-12c0 0-3 2-8 4-4 2-9 4-16 7-13 5-30 11-49 17-32 10-69 18-93 20-9-12-17-24-23-36 64-13 135-40 174-79l3-3-1-5c0 0-3-15-3-34 0-18 4-39 14-48 9-10 30-14 48-14 19 0 34 3 34 3l5 1 3-3c40-40 66-110 80-174 11 6 23 14 35 23-1 24-10 61-20 93-5 18-11 36-17 49-2 6-5 12-7 16-2 4-4 7-4 7l13 13c3-3 5-7 7-12 3-4 5-10 8-17 6-14 12-32 17-51 9-28 17-59 20-85 16 13 28 25 35 32-13 65-26 152-63 213l-2 3 1 3c0 0 3 15 3 34 0 8-1 17-2 25 1-11-1-24-5-36-7-23-23-48-45-70-23-22-47-38-70-46-23-7-45-7-60 7-14 14-14 37-6 60 7 22 23 47 45 69 23 23 47 39 70 46 12 4 25 6 35 5-7 1-16 2-24 2-18 0-34-3-34-3l-3-1-3 2c-61 37-148 50-212 63z m269-81c-6 0-14-1-22-4-15-5-31-14-46-26 5 3 10 5 15 7 8 4 15 6 22 6 8 0 15-2 20-8 2-1 3-3 4-5-9 4-19 2-26-5-10-10-10-25 0-34 5-5 12-8 20-7-7-13-17-27-30-39-16-16-33-28-49-35-7-3-13-4-20-5 8-1 17 0 29 4 20 6 42 20 63 41 20 20 35 43 41 63 7 19 5 33-2 40-4 5-11 7-19 7z m-341-21c-1-5 0-13 4-22 5-14 15-32 28-52 27-39 67-86 110-129 43-43 90-83 129-110 20-13 38-23 52-28 10-4 17-5 22-4-5 23-12 47-21 71-49 29-92 62-131 99-5 2-10 6-14 9-3 4-7 9-9 14-37 39-70 82-99 131-23 9-48 16-71 21z m99-32c19-30 40-58 62-84 0 4 0 8 0 12 0 15 1 27 2 32-16 15-38 28-64 40z m174-150c-5-1-16-2-32-2-4 0-8 0-12 0 26-22 54-43 84-62-11 25-25 48-40 64z"/>
<glyph glyph-name="bandit" unicode="&#116;" d="M196 477c-7-16-17-39-25-62-4-12-8-23-11-33 81-26 111-26 192 0-3 10-6 21-10 33-9 23-19 46-26 62-27-13-43-20-60-20-17 0-33 7-60 20z m-164-104l-5 0c-1 0-2 0-3 0l-1-1c-5-7-7-12-7-18 0-5 2-10 6-16 9-11 27-22 51-32 49-19 120-31 183-31 63 0 134 12 183 31 24 10 42 21 51 32 4 6 6 11 6 16 0 6-2 11-7 18l-1 1c-2 0-6 0-11 0-12-1-30-3-52-6-15-2-31-5-49-7 1-5 1-10 1-14l0-5-4-3c-27-18-72-25-117-25-45 0-90 7-117 25l-4 3 0 5c0 4 1 9 1 14-18 2-34 5-49 7-22 3-40 5-52 6-1 0-2 0-3 0z m124-9c-1-5-2-9-3-13 22-13 63-20 103-20 40 0 81 7 103 20-1 4-1 8-3 13-81-26-119-26-200 0z m-19-117c0-14 2-28 5-41 14 1 30 4 45 10 8 3 16 7 24 11-6-1-13-1-19-1-15 0-36 10-55 21z m238 0c-19-11-40-21-55-21-6 0-13 0-19 1 8-4 16-8 24-11 15-6 31-9 45-10 3 13 5 27 5 41z m-112-16c2-24 21-41 45-58-36 5-59 21-69 51-13-10-29-18-46-25-19-7-39-12-59-10 8-11 15-21 22-30 25-19 46-37 103-46-24-3-51-6-73 1 16-25 28-65 44-95l53 0c7 15 15 45 22 59-17-14-35-17-48-15 34 14 53 37 74 59 12 20 27 41 47 67-19-2-40 3-59 10-21 8-40 20-56 32z m219-18c-6 0-12 0-19-1-15-3-34-8-55-15l-1-1c-12-15-23-29-32-41 16-10 25-20 35-31-14 6-27 12-45 17-5-8-10-14-14-21 9-4 20-7 31-9 26-7 56-10 81-17-18 27-43 55-74 77 20 4 40 9 58 15 20 7 36 16 46 27-2 0-4 0-6 0-1 0-3 0-5 0z"/>
<glyph glyph-name="barbute" unicode="&#117;" d="M255 494c-66-21-130-67-176-132 21-58 33-95 33-132 0-36-12-73-32-129 49-37 100-59 150-65-5 60-10 120 2 181-31 3-62 13-92 31l0 71c80-42 158-42 242 0l0-71c-30-15-61-25-91-30 9-60 8-121 2-181 47 7 93 29 139 64-34 113-34 146 1 261-42 65-115 110-178 132z m-75-212c-11 0-19-3-21-9-2-9 11-20 29-25 19-5 36-2 38 7 2 9-11 20-29 25-6 1-12 2-17 2z m161 0c-5 0-11-1-16-2-19-5-32-16-30-25 3-9 19-12 38-7 18 5 32 16 29 25-1 6-10 9-21 9z"/>
<glyph glyph-name="black-knight-helm" unicode="&#118;" d="M256 496c-36 0-73-13-140-40l280 0c-67 27-104 40-140 40z m-161-56l-31-376c56-28 112-32 168-32l0 240-120 0 0 48 288 0 0-48-120 0 0-240c56 0 112 4 168 32l-31 376z m65-88c5 0 8-4 8-8 0-4-4-8-8-8-4 0-8 4-8 8 0 2 1 4 2 6 2 1 4 2 6 2z m48 0c5 0 8-4 8-8 0-4-4-8-8-8-4 0-8 4-8 8 0 2 1 4 2 6 2 1 4 2 6 2z m48 0c5 0 8-4 8-8 0-4-4-8-8-8-4 0-8 4-8 8 0 2 1 4 2 6 2 1 4 2 6 2z m48 0c5 0 8-4 8-8 0-4-4-8-8-8-4 0-8 4-8 8 0 2 1 4 2 6 2 1 4 2 6 2z m48 0c5 0 8-4 8-8 0-4-4-8-8-8-4 0-8 4-8 8 0 2 1 4 2 6 2 1 4 2 6 2z m-104-80l0-240c3 0 5 0 8 0 3 0 5 0 8 0l0 240z m-120-48l16 0 0-16-16 0z m32 0l16 0 0-16-16 0z m32 0l16 0 0-16-16 0z m112 0l16 0 0-16-16 0z m32 0l16 0 0-16-16 0z m32 0l16 0 0-16-16 0z m-240-32l16 0 0-16-16 0z m32 0l16 0 0-16-16 0z m32 0l16 0 0-16-16 0z m112 0l16 0 0-16-16 0z m32 0l16 0 0-16-16 0z m32 0l16 0 0-16-16 0z m-240-32l16 0 0-16-16 0z m32 0l16 0 0-16-16 0z m32 0l16 0 0-16-16 0z m112 0l16 0 0-16-16 0z m32 0l16 0 0-16-16 0z m32 0l16 0 0-16-16 0z"/>
<glyph glyph-name="brutal-helm" unicode="&#119;" d="M256 478c0 0 0 0 0-1-2-3-5-9-7-16-5-14-9-34-14-53-4-20-7-39-10-54-1-8-2-14-3-18 0-3 0-4-1-5 0-1 0-1 0-2 0-1 2-4 8-7 7-3 16-5 27-5 11 0 20 2 27 5 6 3 8 6 8 7l0 2c-1 1-1 2-1 5-1 4-2 10-3 18-3 15-6 34-10 54-5 19-9 39-14 53-2 7-5 13-7 16 0 1 0 1 0 1z m-169-19c-40-30-65-70-65-115 0-30 12-59 33-84l27 78c-12 17-18 37-18 57 0 23 9 45 23 64z m338 0c14-19 23-41 23-64 0-20-6-40-18-57l27-78c21 25 33 54 33 84 0 45-25 85-65 115z m-211-76c-36-9-62-32-80-70-25-51-36-131-37-240 44-25 92-38 140-41 0 38-7 99-11 138-67 6-96 29-96 29 0 0 4 28 6 40 39-13 79-19 120-19 41 0 81 6 120 19 2-12 6-40 6-40 0 0-28-24-96-29-4-39-11-100-11-138 48 3 96 16 140 41-1 109-12 189-37 240-18 38-44 61-80 70 1-9 3-18 4-26 1 0 1 0 1 0 13-7 22-18 24-31l6-41-1-2c-5-13-19-20-33-26-14-5-30-8-43-8l0 0c-13 0-29 3-43 8-14 6-28 13-33 26l-1 2 6 41c2 13 11 24 24 31 0 0 0 0 1 0 1 8 2 17 4 26z m-112-35l-42-120 30-13c6 42 16 77 29 105 4 7 7 13 11 19l-28 9z m308 0l-28-9c4-6 7-12 11-19 13-28 23-63 29-105l30 13-42 120z m-208-19c-1-2-1-3-1-5l-6-36c3-5 12-12 24-16 12-4 27-7 37-7 10 0 25 3 37 7 12 4 21 11 24 16l-6 36c0 2 0 3-1 5-1-1-2-1-3-1-1-10-9-16-17-20-9-5-21-7-34-7-13 0-25 2-34 7-8 4-16 10-17 20-1 0-2 0-3 1z"/>
<glyph glyph-name="cracked-helm" unicode="&#120;" d="M256 489c-20-7-40-16-59-26l81-63-22-23 79-60-149 46 30 30-81 25c-20-18-39-38-55-61 22-58 33-95 33-133 0-36-11-73-32-130 51-37 102-59 153-64 17 75 14 149 1 224-31-4-63-14-94-30l0 71c35 10 71 14 107 14 47 1 93-5 135-14l0-71c-32 16-62 25-93 29-12-74-12-148 1-222 48 6 95 27 143 64-35 114-35 146 0 261-42 66-115 111-178 133z"/>
<glyph glyph-name="crested-helmet" unicode="&#121;" d="M207 493l36-162c1-1 1-2 3-3 2-1 4-2 7-2 3 0 6 1 7 2 2 1 3 2 3 3l36 162z m89-98l-15-69 0 0 0 0c-2-6-6-11-11-14-6-3-11-4-17-4-5 0-11 1-16 4-5 3-10 8-12 14l0 0 0 0-14 67c-36-15-64-46-75-84 8-4 19-10 32-15 26-12 60-23 88-23 28 0 62 12 89 23 13 6 24 12 32 17-12 40-42 71-81 84z m89-101c-8-5-19-11-33-17-27-12-63-24-96-25-32 0-68 12-96 24-13 6-25 12-33 17-1-71-4-139 9-189 7-27 19-48 38-62 12-10 27-17 47-21l0 161c-29-16-68-3-81 30 9 23 30 34 51 33 24 0 48-15 49-45l0 0 0-89 36 0 0 88c0 0 0 0 0 0 0 1 0 1 0 1 0 30 24 45 49 45 20 1 42-10 50-33-13-33-52-46-81-30l0-161c20 4 35 11 47 21 18 15 29 36 36 63 13 50 9 119 8 189z"/>
<glyph glyph-name="dwarf-helmet" unicode="&#122;" d="M240 486l0-221 17-9 17 9 0 221z m-17-34c-80 0-136-56-136-136l119 0 17-17z m66 0l0-153 17 17 119 0c0 80-56 136-136 136z m-219-153l0-34 50 0-33 34z m41 0l34-34 34 0-34 34z m59 0l34-34 19 0 0 8-26 26z m145 0l-26-26 0-8 19 0 34 34z m52 0l-34-34 34 0 34 34-34 0z m58 0l-33-34 50 0 0 34z m-338-52l0-34 120-60 6 36-101 41-8 17z m321 0l-8-17-101-41 6-36 120 60 0 34z m-168-2l-17-100 34-17 34 17-17 100-17-8z m-162-48l-47-41 0-60 62 94z m356 0l-15-7 62-94 0 60z m-325-16l-68-102 65-44 58 119z m294 0l-55-27 58-119 65 44z m-223-35l-59-120 89 0 13 51 26 0 0 36z m152 0l-69-33 0-36 26 0 13-51 89 0z"/>
<glyph glyph-name="dwarf-king" unicode="&#65;" d="M66 416l-21-11 0-212 42 0 0 212z m96 0l-22-11 0-38c13 5 28 10 43 13l0 25z m94 0l-20-11 0-167 43 0 0 167z m97 0l-21-11 0-25c15-3 29-8 42-13l0 38z m93 0l-21-11 0-212 42 0 0 212z m-231-53c-42 0-106-33-106-33l0-137 56 0-5 5 55 31z m82 0l0-133 54-32-5-5 57 0 0 137c0 0-64 33-106 33z m-61-146l-42-24 42-48 43 0 39 48-39 24z m12-9l8-7 8 7 7-7-7-8 5-5 8-8-13-13 7-7-7-8-8 8-8-8-7 8 7 7-13 13 8 8 5 5-7 8 7 7z m8-22l-6-6 6-5 6 5z m-232-14l0-43 62 0-41 43z m51 0l43-43 42 0-42 43z m73 0l43-43 24 0 0 11-32 32z m181 0l-32-32 0-11 24 0 43 43z m65 0l-42-43 42 0 43 43z m73 0l-41-43 62 0 0 43z m-231-48l0-37 23-11 20 11 0 37z m-191-16l0-21 22-11 20 11 0 21z m380 0l0-21 22-11 20 11 0 21z"/>
<glyph glyph-name="light-helm" unicode="&#66;" d="M233 487l0-158 46 0 0 158z m-18-22c-25-7-45-22-60-41-21-26-32-60-34-95l94 0z m82 0l0-136 94 0c-2 35-13 69-34 95-15 19-35 34-60 41z m-192-154l0-30 302 0 0 30z m17-48c4-23 23-42 48-55 19-10 40-17 59-20l0 15c-14 4-28 10-42 17-12 6-23 14-31 22-6 6-11 13-14 21z m125 0l0-78 18 0 0 78z m123 0c-3-8-8-15-14-21-8-8-19-16-31-22-14-7-28-13-42-17l0-15c19 3 40 10 59 20 25 13 44 32 48 55z m-253-33c-6-55-17-106-28-150 0-1 2-6 6-11 5-7 11-14 19-20 12-10 26-19 37-22l0 171c-13 9-26 19-34 32z m278 0c-8-13-20-23-34-32l0-171c11 3 25 12 37 22 8 6 14 13 19 20 4 5 6 10 6 11-11 44-22 95-28 150z m-139-97c-20 0-41-1-58-3-11-1-21-3-29-5l0-19c7 2 18 4 31 6 17 2 36 3 56 3 20 0 39-1 56-3 13-2 24-4 31-6l0 19c-8 2-18 4-29 5-17 2-38 3-58 3z"/>
<glyph glyph-name="jewel-crown" unicode="&#67;" d="M256 434c-29-59-55-129-56-171 8-9 16-20 21-32 7-13 12-25 12-36l0-7-7-2c-67-17-118-17-169 0l-6 2 0 7c0 15-1 46 15 67-1 2-2 4-4 6-4 5-10 10-17 15-7 5-14 9-20 12-2 1-3 1-4 2 1-27 5-71 12-113 2-17 6-33 9-47 152-14 276-14 428 0 3 14 7 30 9 47 7 42 11 86 12 113-1-1-2-1-4-2-6-3-13-7-20-12-7-5-13-10-17-15-2-2-3-4-4-6 17-21 15-52 15-67l0-7-6-2c-51-17-102-17-169 0l-7 2 0 7c0 11 5 23 12 36 5 12 13 23 21 32-1 42-27 112-56 171z m0-31l43-128-43-64-43 64 34 102z m0-57l-23-68 8-12c5 25 12 48 23 56z m-208-228c5-16 12-26 16-29 128-15 256-15 384 0 4 3 11 13 16 29-147-13-269-13-416 0z"/>
<glyph glyph-name="jester-hat" unicode="&#68;" d="M281 493c-25 0-60-33-86-69 4-4 8-7 12-11 9-10 18-22 26-35 12 18 23 34 36 47 19 20 39 34 60 39-13 17-28 28-48 29z m63-46c-1 0-1 0-2 0l0 0 0 0c-18 0-39-12-60-34-21-23-42-55-62-94-29-58-54-130-71-205 5-10 12-20 20-30 5 18 14 38 32 52l11 8 3-13c2-8 8-21 16-35 5-9 12-19 18-25 14 16 21 44 29 62l4 11 9-7c11-8 20-20 27-32 4-6 7-12 10-18 12 15 20 33 27 51-6 12-11 24-15 36-7 19-12 38-13 56-1 18 2 36 13 51 8 11 19 18 31 18 12 0 24-6 35-17 18-18 37-49 56-95 1 55-3 114-17 161-9 30-22 56-39 73-16 17-36 26-62 26z m-205-18c-4 0-9-1-13-2-48-12-69-50-78-97-4-22-5-45-5-67 1 0 3 0 4 0 2 6 4 12 6 17 5 13 11 24 20 31 8 8 21 10 34 6 26-10 40-36 45-66 2-15 3-31 3-48 14 45 31 87 49 124 6 12 12 23 18 34-8 15-18 29-28 39-16 17-33 28-50 29-2 0-3 0-5 0z m232-148c-5 0-10-3-16-11-1-1-2-3-3-5 7-9 14-19 21-30 4 1 8 2 12 2-1 13-2 27-4 41-4 2-7 3-10 3z m-329-36c-13 0-23-10-23-23 0-13 10-23 23-23 13 0 23 10 23 23 0 13-10 23-23 23z m346-26c-13 0-23-10-23-23 0-13 10-23 23-23 12 0 23 10 23 23 0 13-11 23-23 23z m82-56c-13 0-23-10-23-23 0-13 10-23 23-23 13 0 23 10 23 23 0 13-10 23-23 23z m-99-33c-9-24-21-49-42-68l-12-11-3 17c0 6-5 17-11 28-4 6-9 12-13 17-6-19-15-45-35-62l-6-5-5 5c-11 9-20 22-29 36-5 9-9 17-12 25-12-14-18-34-19-48l-1-20-14 14c-19 18-31 37-40 57l-12-49c0-5-1-12 0-18 0-6 2-11 2-11 4-5 20-11 42-14 22-4 51-4 80-3 60 2 125 13 159 29 5 2 14 16 1 36l0 0z"/>
<glyph glyph-name="imperial-crown" unicode="&#69;" d="M256 473c-30 0-55-24-55-55 0-30 25-55 55-55 31 0 55 25 55 55 0 31-24 55-55 55z m-65-125c-5 0-11-1-16-2-20-4-34-15-43-35-9-21-12-51-6-88l6-6c14-14 37-22 59-22 21 0 42 7 56 19l0 119c-21 10-40 14-56 15z m130 0c-16-1-35-5-56-15l0-119c14-12 35-19 56-19 23 0 45 8 59 22l6 6c6 37 3 67-6 88-9 20-23 31-43 35-5 1-11 2-16 2z m-209-15l-1 0c-30-1-55-12-70-32-13-18-19-43-13-76 1-5 2-10 3-16 25-18 55-19 79 0-9 45-7 82 6 109 2 5 5 10 8 15-3 0-6 0-8 0l-4 0c0 0 0 0 0 0z m288 0c0 0 0 0 0 0l-4 0c-2 0-5 0-8 0 3-5 6-10 8-15 13-27 15-64 6-109 24-19 54-18 79 0 1 6 3 11 3 16 6 33 0 58-13 76-15 20-40 31-70 32z m-267-139c7-27 18-55 33-87l58 0 23 57 0 28c-16-10-36-15-56-15-21 0-41 6-58 17z m246 0c-16-11-37-17-58-17-20 0-40 5-56 15l0-28 23-57 58 0c16 32 26 60 33 87z m-264-4c-23-14-50-16-75-6 10-23 24-49 45-77l61 0c-14 30-25 58-31 83z m282 0c-6-25-17-53-31-83l61 0c21 28 35 54 45 77-24-10-52-8-75 6z m-141-52l-22-55 22-44 22 44z m-164-49l11-46 35 0-23 23 23 23z m90 0l16-16 7-7-23-23 51 0-19 39 3 7z m113 0l3-7-19-39 51 0-23 23 23 23z m79 0l16-16 7-7-23-23 35 0 12 46z m-214-3l-19-20 19-19 19 19z m192 0l-19-20 19-19 19 19z"/>
<glyph glyph-name="horned-helm" unicode="&#70;" d="M69 493c-1-2-3-4-4-7-36-61-15-139 46-175 1 0 2 0 3-1 7 20 16 39 27 55-47 27-73 77-72 128z m367 0c1-51-26-101-73-128 0 0 0 0 0 0 11-17 20-35 27-55 1 0 2 1 4 1 61 36 82 114 46 175-1 3-3 5-4 7z m-184-83c-50 0-94-39-117-98 35 9 76 13 118 13 41 0 81-4 116-12-23 59-68 97-117 97z m1-103c-61 0-122-11-156-28l0-60c38 9 89 13 140 14l-18-116 60 0-18 116c56 0 110-5 149-14l0 60c-35 17-96 28-157 28z m-61-95c-12 0-20-9-20-18 0-10 8-18 20-18 11 0 20 8 20 18 0 9-9 18-20 18z m115 0c-12 0-20-9-20-18 0-10 8-18 20-18 11 0 20 8 20 18 0 9-9 18-20 18z m44-3l-51-191 82 21 0 166c-10 2-20 3-31 4z m-203 0c-11-2-21-3-31-5l0-165 82-21z"/>
<glyph glyph-name="heavy-helm" unicode="&#71;" d="M211 494l18-207c1-5 5-8 10-11 6-3 14-5 21-5 8-1 16 1 22 4 5 3 9 7 10 12l20 207z m-126-45c-40-30-64-71-64-115 0-31 12-61 32-86l28 78c-12 18-19 38-19 59 0 23 9 45 23 64z m342 0c14-19 23-41 23-64 0-20-6-39-17-56l28-79c20 25 32 53 32 84 0 44-26 85-66 115z m-225-67c-36-35-59-63-74-95-21-48-26-110-26-226 41-22 83-35 126-39l13 153c-31 1-62 6-94 15l-10 3 4 9 10 25 3 8 8-2c65-18 130-17 193 0l8 2 3-8 9-25 4-10-10-2c-31-8-61-13-90-15l13-154c44 4 87 18 127 40 0 109-6 169-29 218-15 31-37 60-70 95l-9-90 0-1-1 0c-2-11-10-19-19-24-10-5-20-7-31-7-10 0-21 2-30 7-9 5-17 13-19 24l-1 0 0 1z m-99-47l-40-118 26-12c4 36 11 64 22 89 5 12 11 23 18 33z m308 0l-27-8c9-13 16-27 23-41 11-23 18-48 23-79l22 10z"/>
<glyph glyph-name="gauls-helm" unicode="&#72;" d="M256 447l-25-42c8 1 16 1 25 1 9 0 17 0 25-1z m-222-54l23-71c5 6 10 11 15 17 11 11 23 20 36 29z m444 0l-74-25c13-9 25-18 36-29 5-6 10-11 15-17z m-222-5c-77 0-134-24-171-62-36-36-54-84-56-138l454 0c-2 54-20 102-56 138-37 38-94 62-171 62z m-138-87c27 0 48-22 48-49 0-26-21-48-48-48-27 0-49 22-49 48 0 27 22 49 49 49z m138 0c27 0 48-22 48-49 0-26-21-48-48-48-27 0-48 22-48 48 0 27 21 49 48 49z m138 0c27 0 49-22 49-49 0-26-22-48-49-48-27 0-48 22-48 48 0 27 21 49 48 49z m-276-18c-17 0-31-14-31-31 0-17 14-30 31-30 17 0 30 13 30 30 0 17-13 31-30 31z m138 0c-17 0-30-14-30-31 0-17 13-30 30-30 17 0 30 13 30 30 0 17-13 31-30 31z m138 0c-17 0-30-14-30-31 0-17 13-30 30-30 17 0 31 13 31 30 0 17-14 31-31 31z m-366-113l0-61 140 0 0 61z m158 0l0-61 140 0 0 61z m158 0l0-61 140 0 0 61z"/>
<glyph glyph-name="galea" unicode="&#73;" d="M300 490l-15-3c1-11 1-22 0-34 3 1 6 1 10 1 4 0 9 0 13 0-6 11-8 23-8 36z m4-52c-3 0-6 0-9 0-36-1-72-8-98-36-26-28-44-77-45-164 13-9 31-14 47-13l1-16c-20-1-40 4-55 15-22-14-49-33-71-51-12-9-23-18-30-25-4-4-6-7-8-10-1-1-1-2-2-2 1-3 4-11 10-19 6-8 16-18 29-26 27-17 67-29 120-21 5 1 8 1 10 2 1 1 3 2 6 8 6 11 13 40 23 102 2 11 1 28 2 44 1 7 2 15 5 22 3 7 9 13 17 15 5 2 15 6 26 2 6-1 11-6 15-12 3-6 5-14 7-24 0 0 0 0 1 0 4-1 10-1 17 0 15 1 35 4 55 10 19 6 39 13 53 21 7 4 13 8 16 12 4 4 5 7 5 8-1 17-2 32-5 46-55-24-122-29-172-27l0 16c57-2 136 5 188 38-6 12-21 25-33 28-68-30-110-35-138-29-28 7-41 26-49 40l-8 14 16-2c41-4 74 1 95 19 4 3 8 6 12 8-16 4-34 7-53 7z m72-19c-7 0-14-3-20-8-23-20-55-26-92-24 7-8 16-16 31-19 22-5 58-2 120 24-2 3-5 6-7 9-7 6-14 12-22 16-2 1-4 1-5 2-2 0-4 0-5 0z m8-146c5 0 9-4 9-9 0-5-4-9-9-9-5 0-9 4-9 9 0 5 4 9 9 9z m-60-11c5 0 9-4 9-9 0-5-4-9-9-9-5 0-9 4-9 9 0 5 4 9 9 9z m94-26c-7-2-13-5-20-7-1-15 1-39 6-63 5-26 12-53 19-66l3-5-5-4c-13-13-17-29-21-47l-2-13-10 8c-17 14-25 21-47 31l-7 3 2 7c5 10 6 40 3 69-3 24-7 49-12 64-1 0-3 0-4 0-6-1-11-1-16-1 3-15 5-31 11-48 4-12-10-21-22-30-12-9 7-74 31-92 51-37 150-16 151 7 0 35-37 40-36 52 3 23 30 43 18 61-10 17-20 10-32 14-8 20-9 40-10 60z m-36-12c-1 0-1 0-1 0-13-4-26-7-38-9 5-17 9-41 12-65 2-26 3-51-1-69 14-7 23-13 33-21 4 13 9 27 20 38-8 17-14 40-19 65-4 22-7 44-6 61z m54-68c5 0 9-4 9-9 0-5-4-9-9-9-5 0-9 4-9 9 0 5 4 9 9 9z m-114-34c5 0 9-4 9-9 0-5-4-9-9-9-5 0-9 4-9 9 0 5 4 9 9 9z m-132-18c5 0 9-4 9-9 0-5-4-9-9-9-5 0-9 4-9 9 0 5 4 9 9 9z m257-36c5 0 9-4 9-9 0-5-4-9-9-9-5 0-9 4-9 9 0 5 4 9 9 9z"/>
<glyph glyph-name="elf-helmet" unicode="&#74;" d="M107 486c-4 0-8-23-13-43l32-101-39 70c-3-15-5-29-7-43l43-58-44 37c-1-11-1-22 1-33l45-37-41 13c3-9 6-18 10-27l41-27-30 5c14-27 30-52 39-73 2-5 8-17 10-28 4-16-4-36-21-38 12 14 13 23 11 32-13 0-19-16-19-16 0 0-12-23 16-59 28-36 67-34 67-34 0 0-2 55-1 80 1 25 8 70 8 70 0 0-20 0-42 16-28 19-18 32-25 51-14 37-4 95-4 95 0 0-11 42-18 73-6 25-16 75-19 75z m298 0c-3 0-13-50-19-75-7-31-18-73-18-73 0 0 10-58-4-95-7-19 3-32-25-51-22-16-42-16-42-16 0 0 7-45 8-70 1-25-1-80-1-80 0 0 39-2 67 34 28 36 16 59 16 59 0 0-6 16-19 16-2-9-1-18 11-32-17 2-25 22-21 38 2 11 8 23 10 28 9 21 25 46 39 73l-30-5 41 27c4 9 7 18 10 27l-41-13 45 37c2 11 2 22 1 33l-44-37 43 58c-2 14-4 28-7 43l-39-70 32 101c-5 20-9 43-13 43z m-149 0c-19 0-64-46-88-76-7-9-16-30-16-30l9-37c0 0-1-9-3-31-1-16-1-33-1-33l53 17c4 23 12 52 20 78 7 20 26 58 26 58 0 0 19-37 26-56 9-26 16-58 20-80l53-17c0 0 0 17-1 33-2 22-3 31-3 31l9 37c0 0-6 19-12 27-24 33-73 79-92 79z m0-78c0 0-11-28-15-50-5-21-12-67-12-67 0 0 12-12 5-18-6-6-17 6-17 6l-56-18 3-13 53-20c0 0 11 12 17 6 7-6-5-24-5-24 0 0 4-16 6-24 3-13 11-39 11-39l10-3 10 3c0 0 7 24 10 37 3 8 7 26 7 26 0 0-12 18-5 24 6 6 17-6 17-6l53 20 3 13-56 18c0 0-11-12-17-6-7 6 5 18 5 18 0 0-7 42-12 66-4 23-15 51-15 51z m0-136c5 0 9-8 9-18 0-10-4-18-9-18-5 0-9 8-9 18 0 10 4 18 9 18z"/>
<glyph glyph-name="outback-hat" unicode="&#75;" d="M220 422c-4 0-7 0-11 0-9 0-17-1-22-3-2 0-3-1-4-1 1-2 3-3 6-5 8-6 21-13 36-19 31-13 72-25 106-28 13-1 21 3 27 8 5 5 7 11 7 13 0 1-1 3-6 7-4 3-11 6-19 10-17 6-41 11-65 15-17 2-35 3-51 3l-4 0z m-46-20c-10-20-19-43-27-62 7-5 15-11 24-17 9 8 23 14 23 14 0 0-7-11-12-21 12-7 24-14 36-20 9 11 29 20 29 20 0 0-7-16-11-29 12-6 24-10 36-14 3-2 7-3 11-4 6 16 21 35 21 35 0 0 2-23 2-40 15-3 29-4 42-2 7 17 9 38 7 53 13-11 17-29 19-46 2 0 4 1 5 2-3 25-7 60-9 91 0-1 0-1-1-1-9-8-22-14-39-13-37 3-79 15-112 29-16 7-30 14-39 21-2 1-4 2-5 4z m-59-73c-39 1-74-6-94-31-18-21 106-129 225-177 88-35 176-53 230 11 51 62-21 140-83 178 4-35 8-66 8-66l0-1c1-9-4-18-10-24-7-6-16-10-26-12-20-5-46-4-76 2-58 11-126 41-171 89l-3 3 1 5c1 6 4 14 7 23-2 0-5 0-8 0z m25-6c-2-6-4-12-6-17 10-10 22-19 34-27-3 8-5 19-5 28-8 5-16 11-23 16z m37-25c-2-7-3-16-3-23 15-10 31-19 48-27-3 9-7 20-8 30-13 6-25 13-37 20z m55-29c-1-8-2-17-3-23 19-8 38-14 56-18-2 7-4 16-4 23-5 2-10 3-15 5-11 4-23 8-34 13z m150-17c-2-1-4-2-7-2 0-8-1-15-3-22 3 1 5 3 7 4 3 3 4 6 4 11 0 0 0 5-1 9z m-79-6c-3-7-6-14-9-20 27-5 51-5 67-2l0 0c-2 7-4 14-8 20-16-2-33-1-50 2z"/>
<glyph glyph-name="overlord-helm" unicode="&#76;" d="M183 492c-19-65-41-130-30-186l0-2-16-80 16-92 81-108 12 83-22-11c-16 32-16 64 0 80l-48 16 0 64c10-10 34-28 54-38l-15 54 0 2-31 9-1 209z m146-3l0-206-32-9 0-2-15-54c20 10 44 28 54 38l0-64-48-16c16-16 16-48 0-80l-22 11 12-84 81 109 16 92-16 80 0 2c11 55-11 119-30 183z m-73-50l-7-56 0-64-16-47 23-79 23 79-16 47 0 64z m25-110l0-8 10-30 20 6 0 17c-12 7-22 11-30 15z m-50 0c-8-4-17-8-29-14l0-18 19-6 10 30z m-39-105l0-16 32-16z m128 0l-32-32 32 16z m-294-84c-5-24-7-48-4-73 11 5 22 9 34 11-12 17-22 38-30 62z m460 0c-8-24-18-45-30-62 12-2 23-6 34-11 3 25 1 49-4 73z m-396-10c-3-15-5-30-6-45 6 4 12 9 19 13-5 10-9 21-13 32z m332 0c-4-11-8-22-13-32 7-4 13-9 18-13 0 15-2 30-5 45z m-290-42c-8 0-14-2-20-6-5-2-10-6-16-11l106-63-63 80c-2 0-4 0-6 0 0 0-1 0-1 0z m247 0c-2 0-4 0-6 0l-63-80 106 63c-6 5-11 9-16 11-6 4-13 6-21 6z m-301-26c-22-1-41-6-59-18l4-20 133-9-61 36 0 0-9 5 0 0z m356 0l-8-6 0 0-9-5 0 0-61-36 133 9 4 20c-18 12-37 17-59 18z"/>
<glyph glyph-name="pilgrim-hat" unicode="&#77;" d="M256 449c-18 0-33-2-44-5-4-1-6-2-8-3 2-1 4-1 8-2 11-3 26-5 44-5 18 0 33 2 44 5 4 1 6 1 8 2-2 1-4 2-8 3-11 3-26 5-44 5z m-60-25l-41-184c11-4 26-7 42-10l0 21 118 0 0-21c16 2 31 6 42 10l-41 184c-3-1-7-2-11-3-13-3-30-5-49-5-19 0-36 2-49 5-4 1-8 2-11 3z m20-191l0-67 80 0 0 67z m-65-11l-6-27c14-5 32-9 52-12l0 29c-17 2-33 5-46 10z m210 0c-13-5-29-9-46-11l0-28c20 3 38 7 52 12z m-128-7l46 0 0-33-46 0z m-103-1c-65-15-104-41-104-68 0-46 103-83 230-83 127 0 230 37 230 83 0 27-39 53-104 68l15-67 0-1c0-6-3-10-6-13-3-3-7-5-11-7-9-3-19-6-32-8-26-4-59-6-92-6-33 0-66 2-92 6-13 2-23 5-32 8-4 2-8 4-11 7-3 3-6 7-6 13l0 1z m11-37l-7-31c1 0 3-2 5-3 6-2 16-5 28-7 24-4 57-6 89-6 32 0 65 2 89 6 12 2 22 5 28 7 2 1 4 3 5 3l-7 31c-16-6-35-10-56-13l0-17-118 1 0 16c-21 3-40 7-56 13z"/>
<glyph glyph-name="pointy-hat" unicode="&#78;" d="M416 470c-57-1-105-26-145-65-42-41-75-98-100-156 1-4 3-9 7-13 6-6 14-13 24-18 20-11 47-20 75-25 28-4 56-6 75-3 10 1 18 4 22 7 4 2 5 4 5 6l1 0c-4 43-6 89 0 132 3 20 7 40 15 58-32-32-63-66-87-95 35 70 86 122 141 169-11 2-22 3-33 3z m-261-197c-2 0-4 0-6 0-2 0-5 0-7 0-23-1-44-3-62-7-24-6-40-15-49-26-8-11-10-25-1-46 33-75 117-130 208-148 91-19 186-1 242 66 14 16 16 30 10 43-5 14-19 29-40 43-15 10-33 19-53 27 1-22 3-45 5-66l0 0c1-11-6-21-14-28-9-6-21-10-34-12-26-5-60-4-93 2-34 6-66 15-90 29-13 7-23 15-29 25-7 9-10 21-7 33l0 0 0 1c8 21 17 43 26 64-2 0-4 0-6 0z m7-47c-3-7-6-15-9-23-2-6 0-11 4-18 4-6 12-12 23-19 21-12 52-21 84-27 32-5 64-6 87-2 11 2 20 6 26 9 5 4 7 7 6 12 0 7-1 14-1 21-8-4-17-6-27-7-23-4-52-2-81 3-29 5-59 14-81 27-12 6-22 13-29 21-1 1-1 2-2 3z"/>
<glyph glyph-name="pope-crown" unicode="&#79;" d="M247 483l0-23-23 0 0-18 23 0 0-31c3 0 6 1 9 1 3 0 6-1 9-1l0 31 23 0 0 18-23 0 0 23z m9-89c-2 0-4-1-7-1l0-310c5 0 9 0 14 0l0 310c-3 0-5 1-7 1z m-25-8c-17-8-39-23-58-43-30-30-58-69-68-103-18-56-2-118 28-179 44 11 73 18 98 21z m50 0l0-304c25-3 54-10 98-21 30 61 46 123 28 179-10 34-38 73-68 103-19 20-41 35-58 43z m-25-320c-4 0-8 0-11 0-26-2-55-9-104-21l8-16c102 29 112 29 214 0l8 16c-49 12-78 19-104 21-3 0-7 0-11 0z"/>
<glyph glyph-name="pschent-double-crown" unicode="&#80;" d="M147 492c-6 0-13-2-20-9-14-13-12-30 1-50 8-15 21-29 36-54 7-13 13-28 17-45 40-44 105-83 185-59-51 59-115 97-141 121-18 22-38 66-45 74-5 5-18 22-33 22z m267-7c-14 0-25-5-31-13-8-10-10-22-9-32 2-11 11-20 20-25 10-5 22-7 32 1 7 5 11 13 10 22-1 7-6 15-13 18l-1 1c-7 4-17 3-20-3-4-6-1-15 7-20 2-1 4-2 7-2 0-1-1-2-2-2-1-2-6-2-11 1-6 3-10 8-11 13 0 2 1 11 5 16 4 6 10 10 26 5 11-3 29-24 25-58-7-50-34-86-66-120 5-6 5-5 15-16 32 34 61 80 68 133 6 42-13 72-37 78-5 2-10 3-14 3z m-349-8l-19-11c48-163 119-312 216-446l39 37c-15 18-35 49-21 63 14 14 35 3 48-25l77 49c-10 37-15 74-18 114-85-26-202-30-322 219z"/>
<glyph glyph-name="robin-hood-hat" unicode="&#81;" d="M480 457c-3 0-9-1-17-4-38-14-81-54-108-102-21-38-32-81-25-119 32 79 54 134 121 203l6 6 13-12-7-7c-66-68-85-120-118-203l29 20c1 2 31 45 62 92 15 24 30 49 41 70 5 10 10 19 12 26 3 7 3 12 3 11l0 0c-3 13-7 18-9 19 0 0-1 0-2 0 0 0-1 0-1 0z m-195-117c-46-19-85-67-126-122-35-47-71-99-115-141 63 22 133 45 194 68 24 9 47 18 67 27l3 5c4 10 8 20 12 29-12 30-12 62-5 94-5 9-10 18-14 25-4 5-8 10-11 12-2 2-4 3-5 3z m-152-127c-20-8-38-18-51-30-25-22-40-60-52-94 39 36 71 80 103 124z m231-2l-27-18-4-3c-1-3-2-5-3-7 16 8 29 16 38 23-2 2-3 3-4 5z m15-19c-11-9-27-18-47-28-24-12-55-24-88-36-50-19-108-38-161-56 37 3 83 11 128 22 40 11 79 25 111 42 28 15 51 33 62 52-1 1-3 3-5 4z"/>
<glyph glyph-name="warlock-hood" unicode="&#82;" d="M256 483c-12 0-24-3-35-8l5-22 60 0 5 22c-11 5-23 8-35 8z m-51-17c-6-4-12-9-18-14-20-19-38-46-54-74 42-13 71-20 96-24z m102 0l-24-112c25 4 54 11 96 24-16 28-34 55-54 74-6 5-12 10-18 14z m-77-31l17-78 18 0 17 78z m-105-73c-2-5-5-10-7-15 85-35 191-35 276 0-2 5-5 10-7 15-120-36-142-36-262 0z m-14-31c-18-43-31-84-37-109l47-47 0-94 90-52-27 138-49 49 0 4c0 19 9 39 19 58 7 13 15 24 22 33-23 5-44 11-65 20z m290 0c-21-9-42-15-65-20 7-9 15-20 22-33 10-19 19-39 19-58l0-4-49-49-27-138 90 52 0 94 47 47c-6 25-19 66-37 109z m-152-30l-13-81 20-32 20 32-13 81c-5 0-9 0-14 0z m-175-104c-2-9-5-17-7-26 0 0 0 0 0 0l36-22 0 19z m364 0l-29-29 0-19 36 22c0 0 0 0 0 0-2 9-5 17-7 26z m-376-44c-2-9-3-16-4-22 3-1 7-3 11-4 8-4 17-8 26-14 2-1 5-3 8-5l0 20z m388 0l-41-25 0-20c3 2 6 4 8 5 9 6 18 10 26 14 4 1 8 3 11 4-1 6-2 13-4 22z"/>
<glyph glyph-name="war-bonnet" unicode="&#83;" d="M277 488c3-5 7-10 13-16 2-2 4-4 6-6 6-4 13-8 19-12 41-27 82-61 105-95l15 3c-19 30-50 60-83 84-18 14-36 25-52 33-9 4-17 7-23 9z m-60-6c2-6 6-13 13-21 12-6 25-12 37-20 48-27 95-62 119-93l15 6c-21 29-58 60-95 84-21 14-42 25-59 33-12 5-22 9-30 11z m-65-16l-1 0c2-6 8-15 18-24 0-1 1-1 1-1 18-6 38-15 58-25 29-14 58-31 82-47 19-14 35-27 46-38l12 6 2 1c-21 27-66 62-112 88-25 14-50 26-71 33-14 5-27 7-35 7z m-33-33c-2 0-4 0-5 0-5-1-9-2-11-4 4-9 15-22 32-35 4-4 10-7 15-11 11-2 21-5 32-9 31-9 62-21 88-33 25-12 45-23 57-35 5 5 9 9 15 13-9 10-24 22-43 35-23 16-51 32-79 46-28 14-56 25-78 30-9 2-16 3-23 3z m-33-59c-8 0-15-1-20-2-5-2-8-3-10-5 5-10 18-20 37-30 15-8 32-15 51-21 3-1 6-1 9-1 32-2 65-7 93-14 22-4 40-10 54-16l9 12c-10 8-26 18-47 28-25 11-56 23-85 32-30 9-60 16-83 17-3 0-6 0-8 0z m373-26c-1 0-4 0-6 0-77-15-131-51-156-123l18-9c37 42 79 82 157 103 2 8 2 17 0 21-2 4-5 7-11 8z m-11-11c5 0 9-4 9-9 0-5-4-9-9-9-5 0-9 4-9 9 0 5 4 9 9 9z m-38-13c5 0 9-4 9-9 0-5-4-9-9-9-5 0-9 4-9 9 0 5 4 9 9 9z m-41-21c5 0 9-4 9-9 0-5-4-9-9-9-5 0-9 4-9 9 0 5 4 9 9 9z m109-1c-52-14-86-35-114-61l1-14c34 21 74 48 118 58z m-372-3c-14-1-27-2-38-4-12-2-21-5-28-8-4-2-7-5-8-7 7-8 22-15 43-21 15-4 34-7 54-10l8 2c32 7 65 11 94 12 7 1 14 1 21 1 15 0 28-1 39-4l3 8c-11 5-30 11-52 16-27 6-59 11-90 13-12 1-24 1-35 2z m229-29c5 0 9-4 9-9 0-5-4-9-9-9-5 0-9 4-9 9 0 5 4 9 9 9z m-83-24c-7 0-13 0-20-1-28-1-60-5-91-11-31-7-60-16-81-27-10-5-18-11-24-17-3-4-6-7-7-11 28-15 69-15 111-9 6 5 13 9 20 14 27 18 56 34 82 46 12 6 23 11 34 14-7 1-15 2-24 2z m27-20c-9-3-19-7-29-12-26-12-54-28-80-45-26-17-50-36-66-53-8-8-13-16-16-23-2-4-3-8-3-11 2 0 5 1 9 2 7 2 16 6 26 11 21 11 47 28 73 46 0 1 1 1 2 1 1 2 2 4 4 6 19 22 40 43 59 61 7 6 14 12 21 17 0 0 0 0 0 0z m68-1c-4-4-8-8-11-12 1-63 3-126-2-189 4 1 8 2 12 2 3-1 6-1 9-2 0 66-4 133-8 201z m34-10c-5-3-10-6-15-9 0-1 0-2 0-4l19-121c8 7 18 11 28 12-16 39-26 81-32 122z m-80-12c-5-7-11-17-17-28-9-18-18-40-24-61-7-21-11-42-11-58 0-8 1-14 3-19 1-2 2-4 3-5 1 1 2 2 4 4 3 4 6 10 10 18 6 15 13 36 19 58 6 22 12 45 17 65 3 7 5 14 7 20z m-22 0c-3-3-6-5-9-8-18-16-39-37-57-59-19-22-34-44-43-62-5-10-8-18-9-24 0-4 0-7 1-9 1 1 3 1 5 3 6 3 13 9 20 17 15 14 33 36 51 58 3 3 5 6 8 9 6 19 14 38 22 55 4 7 7 14 11 20z"/>
<glyph glyph-name="visored-helm" unicode="&#84;" d="M258 493c-74 0-138-62-156-148 53 8 102 22 154 45l4 2 4-2c49-26 98-41 151-47-18 87-82 150-157 150z m1-122c-57-25-113-40-172-47 7-33 7-66-1-99 90-41 232-43 341 1-11 32-12 65-1 98-59 4-113 20-167 47z m-13-33l19 0 0-128-19 0z m-59-11l19 0 0-102-19 0 0 102z m116 0l19 0 0-102-19 0 0 102z m-172-15l19 0 0-79-19 0z m228 0l19 0 0-79-19 0z m39-117c-15-4-29-8-44-10l-19-65c26 18 48 44 63 75z m-278-3c14-28 33-51 57-68l-18 59c-13 2-26 6-39 9z m213-11c-51-8-105-9-154-2l21-69c18-9 38-13 58-13 19 0 37 4 53 11z m-195-47c-20-22-37-45-49-72 70 8 134-15 168-51 40 35 104 55 171 44-15 29-33 52-54 74-31-32-71-51-116-51-46 0-89 21-120 56z"/>
<glyph glyph-name="viking-helmet" unicode="&#85;" d="M52 458c-35-35-41-74-33-118 7-34 22-71 41-107 18 27 41 56 69 78-21 17-38 36-52 56-17 28-26 58-25 91z m408 0c1-33-8-63-25-91-14-20-31-39-52-56 28-22 51-51 69-78 19 36 34 73 41 107 8 44 2 83-33 118z m-204-125c-9 0-17-3-23-7l0-23c7 3 15 4 23 4 8 0 16-1 23-4l0 23c-6 4-14 7-23 7z m-41-30c-30-12-60-35-84-63-32-37-54-84-58-119l142 0z m82 0l0-182 142 0c-4 35-26 82-58 119-24 28-54 51-84 63z m-154-4c-29-22-55-56-73-85 3-6 6-12 9-18 10 20 23 39 38 56 12 14 25 27 40 38-5 3-9 6-14 9z m226 0c-5-3-9-6-14-9 15-11 28-24 40-38 15-17 28-36 38-56 3 6 6 12 9 18-18 29-44 63-73 85z m-113-10c-8 0-14-1-19-3-3-2-4-3-4-4 0 0 1-1 4-3 5-2 11-4 19-4 8 0 14 2 19 4 3 2 4 3 4 3 0 1-1 2-4 4-5 2-11 3-19 3z m23-7c0 0 0 0 0 0 0 0 0 0 0 0z m-46 0c0 0 0 0 0 0 0 0 0 0 0 0z m0-21l0-48c7 3 15 4 23 4 8 0 16-1 23-4l0 48c-7-2-15-4-23-4-8 0-16 2-23 4z m23-62c-8 0-14-2-19-4-3-1-4-3-4-3 0 0 1-2 4-3 5-2 11-4 19-4 8 0 14 2 19 4 3 1 4 3 4 3 0 0-1 2-4 3-5 2-11 4-19 4z m23-7c0 0 0 0 0 0 0 0 0 0 0 0z m-46 0c0 0 0 0 0 0 0 0 0 0 0 0z m0-21l0-46c7 3 15 4 23 4 8 0 16-1 23-4l0 46c-7-3-15-4-23-4-8 0-16 1-23 4z m23-60c-8 0-14-1-19-4-3-1-4-3-4-3 0 0 1-1 4-3 5-2 11-4 19-4 8 0 14 2 19 4 3 2 4 3 4 3 0 0-1 2-4 3-5 3-11 4-19 4z m23-7c0 0 0 0 0 0 0 0 0 0 0 0z m-46 0c0 0 0 0 0 0 0 0 0 0 0 0z m-160-1l0-30 18 0c-2 4-4 10-4 15 0 5 2 11 4 15z m55 0c-7 0-13-2-17-5-4-3-6-7-6-10 0-3 2-7 6-10 4-3 10-5 17-5 7 0 13 2 17 5 4 3 6 7 6 10 0 3-2 7-6 10-4 3-10 5-17 5z m37 0c2-4 4-10 4-15 0-5-2-11-4-15l50 0 0 30z m132 0l0-30 50 0c-2 4-4 10-4 15 0 5 2 11 4 15z m87 0c-7 0-13-2-17-5-4-3-6-7-6-10 0-3 2-7 6-10 4-3 10-5 17-5 7 0 13 2 17 5 4 3 6 7 6 10 0 3-2 7-6 10-4 3-10 5-17 5z m37 0c2-4 4-10 4-15 0-5-2-11-4-15l18 0 0 30z m-188-20l0-16 23-35 23 35 0 16c-7-2-15-4-23-4-8 0-16 2-23 4z"/>
<glyph glyph-name="spartan-helmet" unicode="&#87;" d="M254 492c-9 0-18-1-26-3-47-8-90-26-121-52-32-26-53-59-57-100l0 0c-8-84 40-152 66-181 5-6 7-14 6-21 0-8-3-15-6-22-7-15-19-30-31-45-14-16-28-29-38-39 7 1 15 4 23 9 14 9 29 25 42 41 12 17 23 36 29 51 3 8 5 15 5 20 1 5 0 8 0 8-15 26-31 52-41 80-9 27-12 55 0 83 25 58 78 85 131 90 52 4 106-13 136-45l24-23 69 42c-20 26-56 55-96 76-34 17-71 29-106 30-3 1-6 1-9 1z m118-126l0 0 1 0c0 0 0 0-1 0z m-127 27c-3 0-5 0-8 0-3-1-7-1-10-2l9-45c6 2 12 3 18 4l-9 43z m44-4c-5-12-8-26-7-39 6 0 12-1 18-2-1 12 1 24 6 37-5 2-11 3-17 4z m-107-11c-6-3-12-7-18-11 18-9 30-23 35-40 5 4 10 8 16 11-6 16-18 30-33 40z m88-45c-1 0-2 0-3 0-3 0-6 0-8-1-42-4-78-30-88-90-2-13 5-43 12-67 8-25 17-46 17-46l1-1 0-1c2-18-9-35-21-53-8-11-17-22-24-31 24 1 46 12 67 30 0 1 0 1-1 2 0 3-2 8-1 14 0 10 5 22 19 32-25 35-29 79-24 115l0 7 7 1c59 9 97 29 139 55-27 22-61 34-92 34z m120-38c-48-31-91-56-157-67-3-34 2-72 25-101 13-1 23-7 30-16 7-10 10-22 11-34 23-21 63-39 97-57-3 40 0 77-14 114l-63 26 0 0c-14 6-23 14-26 24-4 10-1 20 1 31l2 12 11-6c23-12 51-20 77-20l7 0 2-6c10-31 13-57 16-82l7-3c5 29 2 68-3 104-6 34-15 65-23 81z m-167-224c0-1 0-1 0 0 0 0 0 0 0 0z"/>
<glyph glyph-name="samurai-helmet" unicode="&#88;" d="M356 479l50-25c-2-8-9-22-20-37-13-18-32-38-50-57-19-19-38-36-54-49-8-6-14-11-19-14-3-2-5-3-6-4-1 0-1 0-1 0 0 0 0 0 0 0-2 1-4 2-6 4-6 3-12 8-20 14-15 13-35 30-54 49-18 19-37 39-50 57-11 15-18 29-20 37l50 25c15-29 29-62 44-90 16-30 32-55 52-66l4-2 4 2c20 11 36 36 52 66 15 28 30 61 44 90z m-100-108c8 0 16-1 23-2-8-13-16-22-23-27-7 5-14 14-23 27 8 1 15 2 23 2z m83-33c23-23 36-55 36-86l0-1c-33 12-76 18-119 18-43 0-86-6-119-18l0 1c0 31 13 63 36 86 16-16 32-30 46-41 8-6 15-12 21-15 3-2 5-4 8-5 2-1 4-2 8-2 4 0 6 1 8 2 3 1 6 3 8 5 6 3 13 9 21 15 14 11 30 25 46 41z m64-38c21-20 32-26 64-38-12-24-26-47-57-61l-17 52c0 6-1 12-1 17z m-294 0l11-30c0-5-1-11-1-17l-17-52c-31 14-45 37-57 61 32 12 43 18 64 38z m156-50c45 0 89-8 117-22l29-85-44 20c-4 24-6 46-6 59l0 14-13-6c-28-14-55-22-83-23z m-18 0l0-43c-27 1-55 9-83 23l-13 6 0-14c0-13-2-35-6-59l-44-20 29 85c28 14 72 22 117 22z m97-42c1-19 4-44 9-68 3-15 7-30 11-42 4-13 7-22 14-29l2-2 4 0c14 0 39-2 53-10-2-1-5-3-9-5-9-4-24-8-41-11-36-5-83-8-131-8-48 0-95 3-130 8-18 3-33 7-42 11-4 2-7 4-9 5 14 8 39 10 53 10l4 0 2 2c7 7 10 16 14 29 4 12 8 27 11 42 5 24 8 49 9 68 58-26 118-26 176 0z m-203-67c-3-14-6-27-10-38-3-9-6-15-8-18-11 0-28 0-43-6l14 41z m230 0l47-21 14-41c-15 6-32 6-43 6-2 3-5 9-8 18-4 11-7 24-10 38z"/>
<glyph glyph-name="broken-shield" unicode="&#86;" d="M46 488l0-9c0-103 10-205 41-288 31-83 82-148 164-170l2-1 2 1c89 19 142 84 171 168 28 83 35 187 35 290l0 9z m19-18l377 0c0-99-7-198-34-275-27-80-73-137-154-155-74 21-120 78-149 157-29 78-40 174-40 273z m19-19c0-84 12-173 39-245 8-21 17-40 27-58l46 38-41 76-5 10 11 3c0 0 39 12 60 18l21 7-95 151z m160 0l46-92 132 44c1 16 1 32 1 48z m177-68l-123-40 25-50 26-49 53 2c10 43 16 90 19 137z m-110-107l-31-11 67-145c18 23 32 52 43 84 3 7 5 15 7 23l-53-2-6 0-3 5z m-99-5c-13-4-28-8-35-11l39-71 4-7-6-5-54-45c25-36 56-62 95-73 30 7 55 22 76 42l-119 170z"/>
<glyph glyph-name="checked-shield" unicode="&#89;" d="M49 492l0-10c0-104 10-207 41-290 31-83 83-148 165-171l2 0 2 0c90 19 143 84 171 169 29 84 36 188 36 292l0 10-11-1c-132-19-264-19-395 0z m19-21c63-9 126-13 190-13l0-184 174 0c-5-28-11-54-19-78-28-80-74-138-155-156 0 0 0 0 0 0l0 234-171 0c-13 61-19 128-19 197z"/>
<glyph glyph-name="cracked-shield" unicode="&#90;" d="M53 486c31-26 53-95 53-176 0-45-7-85-18-117 31-71 86-122 180-175 92 49 144 96 174 167-13 33-20 77-20 125 0 81 22 150 52 176-42-9-84-16-125-20l-71-136 46-20-115-190 42 170-23 10-71-20 59 50 44 131c-69-1-138 7-207 25z"/>
<glyph glyph-name="crenulated-shield" unicode="&#48;" d="M45 495l0-100 64-61 3-2 0-186c34-43 82-83 149-122 67 39 116 82 150 126l0 182 3 2 64 61 0 100-59 0 0-68-66 0 0 68-59 0 0-68-66 0 0 68-59 0 0-68-65 0 0 68-59 0z m57-101l160 0 0-153-114 0 0 109z m160-154l112 0 0-74c-24-33-61-64-112-94l0 168z"/>
<glyph glyph-name="frozen-orb" unicode="&#49;" d="M255 497c-131 0-239-108-239-239 0-132 108-238 239-238 132 0 239 106 239 238 0 131-107 239-239 239z m0-19c121 0 219-99 219-220 0-122-98-219-219-219-121 0-219 98-219 219 0 121 98 220 219 220z m0-19c-111 0-201-90-201-201 0-111 90-201 201-201 111 0 201 90 201 201 0 111-90 201-201 201z m-1-17l13-62 51 21-47-46 7-32-13-3 8-30 29 8-3 12 31 11 17 63 7-55 61 21-49-42 43-33-62 16-24-21-10 10-22-22 22-21 9 9 25-22 63 17-44-33 48-42-61 21-7-54-17 62-30 10 3 13-29 8-8-29 13-3-7-32 47-46-51 21-13-63-12 63-50-20 45 45-6 31 13 4-8 29-29-8 3-13-29-10-17-62-7 54-61-21 48 42-43 33 62-16 24 21 9-9 22 21-22 22-9-10-24 21-62-17 43 34-49 42 61-21 7 55 17-63 30-11-3-12 29-8 8 30-13 3 6 31-45 46 50-21 12 63z"/>
<glyph glyph-name="fire-shield" unicode="&#50;" d="M51 488l0-12c0-100 9-189 39-264 30-76 81-138 163-185l5-2 4 2c80 46 131 108 162 184 30 75 41 164 41 265l0 12-11-2c-128-23-257-26-392 0z m395-23c-1-95-12-178-40-247-28-71-75-128-148-172-76 45-122 102-150 173-28 69-37 151-38 246 129-23 253-20 376 0z m-158-48c-90-27-41-91-63-126-24-36-73-29-57 65-71-81-3-220 55-257-16 15-27 40-27 69 0 8 1 16 3 24 7-20 24-34 44-34 26 0 47 25 47 55 0 11-2 20-6 28 19-14 32-41 32-73 0-25-8-47-21-62 53 32 100 112 53 207-21-108-108 46-60 104z"/>
<glyph glyph-name="eye-shield" unicode="&#51;" d="M46 493c0-69 3-132 13-189l0 0c15 14 31 26 47 37 18 63 74 111 142 115l0 21c-68 1-136 6-202 16z m422 0c-66-10-133-15-201-16l0-21c69-3 126-51 144-115 15-10 30-21 45-34 9 56 12 118 12 186z m-209-55c-57 0-106-34-128-82 43 23 86 34 129 33 43 0 85-11 126-33-22 48-71 82-127 82z m0-68c-40 0-72-32-72-72 0-40 32-72 72-72 39 0 71 32 71 72 0 40-32 72-71 72z m-64-8c-39-11-78-33-116-65 38-31 77-52 116-63-16 16-26 39-26 64 0 25 10 47 26 64z m128 0c16-17 26-39 26-64 0-25-10-47-27-64 40 11 79 32 116 63-37 32-76 53-115 65z m-64-18c25 0 46-21 46-46 0-25-21-46-46-46-26 0-46 21-46 46 0 25 20 46 46 46z m0-19c-15 0-28-12-28-27 0-15 13-27 28-27 15 0 27 12 27 27 0 15-12 27-27 27z m-197-37c22-110 73-197 186-264l0 116c-67 4-123 51-141 114-16 10-30 21-45 34z m390-4c-14-11-27-21-41-30-19-64-76-111-144-114l0-115c112 67 162 152 185 259z m-67-45c-40-21-82-32-125-32-43 0-86 10-128 32 22-48 71-81 127-81 56 0 104 33 126 81z"/>
<glyph glyph-name="extraction-orb" unicode="&#52;" d="M254 495c-20 0-40-2-60-8-13-3-25-8-37-13-15 12-34 20-55 20-45 0-81-37-81-82 0-20 7-38 19-53-24-49-31-108-15-165 34-128 166-204 293-170 128 35 204 166 170 294-29 108-127 178-234 177z m5-18c45-1 88-15 124-40l-201-6c-2 10-7 20-12 28 9 4 19 7 29 10 18 5 37 8 55 8 2 0 3 0 5 0z m-157-1c35 0 64-29 64-64 0-35-29-63-64-63-35 0-63 28-63 63 0 35 28 64 63 64z m306-59c9-10 18-20 26-30l-138 27z m-224-3l263-46c6-12 12-23 17-36l-129 19 140-67c2-12 3-25 2-37l-297 140c3 8 4 17 4 25 0 1 0 1 0 2z m-13-45l280-217c-7-14-16-27-26-39l-158 134 129-163c-13-10-27-19-41-26l-204 289c8 6 15 13 20 22z m-116-23c6-5 14-9 22-11l-29-153c-2 5-4 11-5 17-14 51-8 102 12 147z m76-10l118-301c-19 1-38 4-56 9l-51 155 2-134c-16 10-31 22-45 35l-3 231c2 0 4 0 6 0 10 0 20 1 29 5z m172-35l170-87c-2-11-5-22-9-33z m-222-44l4-140c-9 11-17 23-24 36z m127-40l115-172c-3-1-6-2-10-3-9-2-18-4-28-5l-77 180z"/>
<glyph glyph-name="edged-shield" unicode="&#53;" d="M460 490l-10-1c-132-16-264-20-395 0l-1 0-10 0 0-10c0-103 11-205 41-289 31-83 83-148 165-170l2-1 2 1c90 19 142 84 171 168 29 84 35 188 35 291z m-18-21c-1-57-3-113-10-166l-97-41 82-35c-3-11-6-22-10-33-22-65-57-115-113-141l-41 98-41-96c-51 28-86 78-109 142-4 10-8 21-11 32l77 33-93 41c-9 53-13 109-13 166 49-7 98-11 147-12l43-100 43 101c48 2 97 5 146 11z m-356-24c0-44 3-87 8-129l123-54-101-43c18-56 46-102 89-129l48 113 49-116c46 26 75 72 92 129l-107 46 126 53c5 42 6 86 6 130-37-4-73-7-110-9l-56-133-56 132c-37 2-74 5-111 10z"/>
<glyph glyph-name="dragon-orb" unicode="&#54;" d="M256 471c-101 0-183-82-183-183 0-4 0-8 0-12 9-21 20-42 26-65-30 148 58 238 155 237 25 0 50-5 74-18 0 0-62 8-134-39l6-20c12-35 29-65 30-105 2-3 5-5 7-7l-1-5c-7-35-2-73 9-105 10 15 21 39 24 59 0 4 4 6 6 8 9 40 39 76 62 108l15 22 1-27c2-37 10-82 4-123l3-4-2-5c-9-15-13-33-15-49 20 19 38 40 52 59 2 17 11 33 19 48 9 15 18 30 25 43 0 101-82 183-183 183z m-63-80c-7-5-15-10-22-16-39-31-61-144-66-175 14-21 23-42 47-60 4 39-1 81-7 121l-1 6c3 1 5 3 7 5 1 34 16 68 33 101z m-3-45c-10-22-17-44-20-64 5 1 10 2 15 2 8 1 17-1 26-5-3 23-12 43-21 67z m147-53c-16-22-32-45-40-67 7 1 14 1 21-1 8-2 16-6 22-11 2 25-1 53-3 79z m-288-5c-11-28-17-59-11-87 10 11 25 19 39 19-8 22-20 44-28 68z m400-19c-12-23-28-44-35-68 16 1 33 3 45-6 3 23-3 50-10 74z m-285-11c2-17 5-34 6-52 10 2 20 0 29-1l-2-18c-9 1-20 2-26 1 1-9 1-18 1-27 11 3 23 1 33-1l-5-18c-13 4-22 3-30 0 0-6-1-12-2-19l-2-12-12 6c-40 24-51 56-68 80-13 15-37-6-39-20 11-14 19-26 25-38 6 7 13 13 24 17l5-18c-9-2-14-8-20-17 8-18 13-36 22-52l303 0c2 5 3 9 5 14-9 5-21 7-38 10l2 18c17-3 30-6 41-10 1 4 3 9 4 14-7 4-16 8-28 11l5 17c12-3 21-7 29-11 6 14 15 29 28 44-10 12-39 7-48 6-18-25-34-43-67-72l-15-13c0 15-1 32 1 45-6 5-19 10-32 10l1 18c12 0 25-3 35-8 2 9 6 19 10 28-8 9-17 16-26 18-9 2-18 1-27-6-5-31-22-62-38-77l-9-9-6 12c-15 35-22 81-15 124-20 16-34 19-54 6z m-63-207l-20-30 350 0-20 30z"/>
<glyph glyph-name="cross-shield" unicode="&#55;" d="M256 492c-64-96-128-88-192-104 0-256 64-320 192-368 128 48 192 112 192 368-64 16-128 8-192 104z m0-32c5 0 9-4 9-9 0-5-4-9-9-9-5 0-9 4-9 9 0 5 4 9 9 9z m0-30c5-5 9-10 14-14 35-36 83-46 131-57 3-1 6 0 9-2-3-65-6-131-33-191-12-32-36-58-64-77-15-10-33-18-50-26-6-4-14 1-20 3-44 18-85 48-105 92-29 62-33 132-36 199 57 9 113 28 152 71z m0-42l-28-69c-17 4-38 11-68 21 0-32-16-48-32-64 0-16 64-32 80-32 13 9 23 15 31 19-5-28-20-88-47-115 32-16 48-32 64-48 16 16 32 32 64 48-27 27-42 87-47 115 8-4 18-10 31-19 16 0 80 16 80 32-16 16-32 32-32 64-30-10-51-17-68-21z m-172-8c5 0 9-4 9-9 0-5-4-9-9-9-5 0-9 4-9 9 0 5 4 9 9 9z m344 0c5 0 9-4 9-9 0-5-4-9-9-9-5 0-9 4-9 9 0 5 4 9 9 9z m-332-150c5 0 9-4 9-9 0-5-4-9-9-9-5 0-9 4-9 9 0 5 4 9 9 9z m320 0c5 0 9-4 9-9 0-5-4-9-9-9-5 0-9 4-9 9 0 5 4 9 9 9z m-256-128c5 0 9-4 9-9 0-5-4-9-9-9-5 0-9 4-9 9 0 5 4 9 9 9z m192 0c5 0 9-4 9-9 0-5-4-9-9-9-5 0-9 4-9 9 0 5 4 9 9 9z m-96-50c5 0 9-4 9-9 0-5-4-9-9-9-5 0-9 4-9 9 0 5 4 9 9 9z"/>
<glyph glyph-name="lightning-shield" unicode="&#56;" d="M464 490l-11-2c-130-23-259-26-391-1-17 0-4 0-19 0l1-8c0-20 0-40 1-59l0-7 8-2c23-4 42-24 42-49 0-22-13-40-32-47l-7-3 1-8c22-120 77-216 192-282l5-3 5 3c112 65 168 162 191 283l1 7-7 3c-18 8-31 26-31 47 0 25 19 45 42 49l8 2 0 7c1 19 1 39 1 59z m-19-22c0-14 0-27 0-40-29-8-50-35-50-66 0-26 14-48 35-60-23-113-73-200-176-261-105 62-155 148-177 260 22 12 36 34 36 61 0 31-21 58-50 66 0 13 0 26-1 40 76-14 151-19 226-16l-92-122 52 0-92-160 94 96 39 0-96-147 184 184-91 0 60 62-56 0 76 92c26 3 53 7 79 11z"/>
<glyph glyph-name="magic-shield" unicode="&#57;" d="M58 489c-2-29-2-56-2-80 6 2 13 4 21 4 31 0 57-26 57-57 0-31-26-56-57-56-6 0-12 1-18 2 13-123 49-166 89-192 20-13 43-22 64-33 17-10 34-22 47-40 14 18 30 30 48 40 21 11 43 20 64 33 39 26 75 69 88 192-5-1-11-2-17-2-31 0-57 25-57 56 0 31 26 57 57 57 8 0 15-2 21-5 0 25-1 52-2 81-60-13-131-19-202-20l0 0c-70 1-142 7-201 20z m304-39l-27-94-18 6 11 39-85-64-11 15z m-205-1l81-60-11-15-34 25 35-104-18-6z m140-100l129-98-98 0 0 19 42 0-84 64z m-122-38l10-15-36-26 105 0 0-18-163-1 84 60z m117-21l18-6-49-155-31 97 17 6 14-41z"/>
<glyph glyph-name="roman-shield" unicode="&#33;" d="M256 492c-52 0-104-4-160-12-16-224-16-224 0-448 112-16 208-16 320 0 16 224 16 224 0 448-56 8-108 12-160 12z m0-12l16-16-7 0 0-151 18 0 25 38-33 33 32 32-32 32 23 22-6 5 23 0 0-22-5 5-9-10 32-32-32-32 31-31-26-39c44 19 68 74 53 132l-6 26 21-17c21-18 36-45 42-73 7-28 5-58-8-82-10-17-24-27-42-32-5-1-11-2-17-3l67 0 0-18-67 0c6-1 12-2 17-3 18-5 32-15 42-32 13-24 15-54 8-82-6-28-21-55-42-73l-21-17 6 26c15 58-9 113-53 132l26-39-31-31 32-32-32-32 9-10 5 5 0-22-23 0 6 5-23 22 32 32-32 32 33 33-25 38-18 0 0-151 7 0-16-16-16 16 7 0 0 151-18 0-25-38 33-33-32-32 32-32-23-22 6-5-23 0 0 22 5-5 9 10-32 32 32 32-31 31 26 39c-44-19-68-74-53-132l6-26-21 17c-21 18-36 45-42 73-7 28-5 58 8 82 10 17 24 27 42 32 5 1 11 2 17 3l-67 0 0 18 67 0c-6 1-12 2-17 3-18 5-32 15-42 32-13 24-15 54-8 82 6 28 21 55 42 73l21 17-6-26c-15-58 9-113 53-132l-26 39 31 31-32 32 32 32-9 10-5-5 0 22 23 0-6-5 23-22-32-32 32-32-33-33 25-38 18 0 0 151-7 0z m-125-60c-8-13-14-27-18-42-6-25-4-51 7-70 7-12 16-18 31-22 12-4 28-5 48-5l0 17c-45 19-71 68-68 122z m250 0c3-54-23-103-68-122l0-17c20 0 36 1 48 5 15 4 24 10 31 22 11 19 13 45 7 70-4 15-10 29-18 42z m-164-125l0-26c4 12 14 22 26 26z m52 0c12-4 22-14 26-26l0 26z m-13-16c-13 0-23-10-23-23 0-13 10-23 23-23 13 0 23 10 23 23 0 13-10 23-23 23z m-39-36l0-26 26 0c-12 4-22 14-26 26z m78 0c-4-12-14-22-26-26l26 0z m-96-12c-20 0-36-1-48-5-15-4-24-10-31-22-11-19-13-45-7-70 4-15 10-29 18-42-3 54 23 103 68 122z m114 0l0-17c45-19 71-68 68-122 8 13 14 27 18 42 6 25 4 51-7 70-7 12-16 18-31 22-12 4-28 5-48 5z"/>
<glyph glyph-name="rosa-shield" unicode="&#34;" d="M254 491c-62 0-124-9-188-28l-6-2 0-6c-7-148 49-347 192-430l5-2 4 2c139 81 202 282 196 430l0 6-7 2c-64 19-127 28-190 28-2 0-4 0-6 0z m0-18c2 0 4 0 6 0 59-1 118-9 178-26 4-139-57-327-181-402-128 77-183 263-179 402 60 17 118 25 176 26z m4-17l-28-127-46 26 27-49-92-26 91-26-26-48 45 26 29-128 29 128 46-26-27 48 92 26-93 26 27 49-46-26z"/>
<glyph glyph-name="round-shield" unicode="&#35;" d="M262 448c-52 1-102-18-140-54-37-37-58-86-58-138 0-69 36-133 96-168 59-34 133-34 192 0 60 35 96 99 96 168 0 104-83 189-186 192z m-5-9l9-6 0-10-9-5-9 5 0 10z m3-30c83-2 149-70 149-153 0-85-68-153-153-153-85 0-153 68-153 153 0 41 16 81 46 110 30 29 70 45 111 43z m-11-20c-23-1-46-8-65-21l0-224c19-13 42-20 65-21z m18 0l0-266c22 2 44 9 63 22l0 222c-19 13-41 20-63 22z m-101-34c-28-26-44-61-44-99 0-38 16-73 44-99z m-61-2l9-5 0-10-9-6-9 6 0 10z m301 0l9-5 0-10-9-6-9 6 0 10z m-58 0l0-194c26 25 42 60 42 97 0 37-16 72-42 97z m58-173l9-5 0-11-9-5-9 5 0 11z m-300-1l9-5 0-10-9-6-9 6 0 10z m150-85l9-5 0-11-9-5-9 5 0 11z"/>
<glyph glyph-name="orbit" unicode="&#36;" d="M249 486c-58-2-114-26-156-67-79-80-89-205-25-296 65-92 187-123 288-74 10-11 26-14 39-5 12 8 17 24 11 37 4 4 8 8 13 12 43 43 67 102 67 163 0 62-25 122-70 165-44 43-105 67-167 65z m8-15c87-1 164-53 197-133 33-80 15-172-46-234-4-3-8-7-12-11-10 7-24 8-34 1-10-7-15-19-13-31-80-39-175-24-240 36-65 60-86 154-53 237 33 82 113 136 201 135z m-8-63c-39-1-76-18-104-47l0-7 25 0 8-16 20 5 26 2 27-13 14-14-9-12-27-5 14-19 5-8-13-18-19 5-16-6-6-12-26 0-10 13 0 23-19 3-10-21-3-26 8-21 17-18 7-23-7-8-23 7c42-63 123-86 192-54 68 32 104 109 82 181l-11-34-56-51-11 15 24 45 0 27-24-15-7 27 31 64 1 0c-28 22-64 33-100 31z m32-171l19-4 6-29-30-28-4-50-20-12-13 31-29 16-13 37 12 28z"/>
<glyph glyph-name="ice-shield" unicode="&#37;" d="M259 489c-68 0-136-11-204-32l-6-3-1-6c0-95 10-179 41-250 30-71 82-130 165-175l5-2 4 2c81 44 133 102 165 174 31 71 41 155 41 251l0 7-6 2c-68 21-136 32-204 32z m0-19c64 0 128-10 191-29-1-91-11-170-40-237-29-66-76-120-151-161-77 42-125 95-153 162-29 66-38 145-38 236 64 19 127 29 191 29z m3-38l-56-33 30-52c-6-2-11-6-16-9l-30 52-56-32 0-64 61 0c-1-3-1-6-1-10 0-3 0-6 1-9l-61 0 0-65 56-32 30 53c5-4 10-7 16-10l-30-52 56-33 56 33-31 52c6 3 11 6 16 10l30-53 56 32 0 65-60 0c0 3 0 6 0 9 0 4 0 7 0 10l60 0 0 64-56 32-30-52c-5 3-10 7-16 9l31 52z m0-98c27 0 49-22 49-50 0-27-22-49-49-49-28 0-50 22-50 49 0 28 22 50 50 50z"/>
<glyph glyph-name="layered-armor" unicode="&#38;" d="M130 491l-92-59c3-27 9-53 16-80l187 120-20 13c-31 1-62 3-91 6z m253-1c-40-4-83-6-126-6l204-132c7 26 13 52 16 78z m-125-29l-199-128c8-26 18-52 30-78l243 158z m91-59l-74-49 151-98c12 25 22 52 30 78l-107 69z m-91-60l-161-104c12-25 26-50 42-75l196 129z m94-61l-78-51 102-67c16 24 30 49 42 75z m-95-62l-108-71c14-20 28-40 44-60l132 86z m85-57l-67-43 47-31c15 20 30 39 44 59z m-85-54l-51-34c16-19 33-38 52-56 18 18 35 37 51 56l-52 33z"/>
<glyph glyph-name="smoking-orb" unicode="&#39;" d="M124 494c22-24 32-45 35-66 3-22-1-44-7-67-13-47-32-99-5-160-12-28-7-57 7-79 6-9 13-17 21-23-27-20-48-48-59-80l317 0c-20 58-72 102-135 111-104 8-133 149 3 216-74-91-68-138-31-172-6 23-6 48 3 74 42 13 93 42 124 84 17 22 29 49 28 78 0 27-10 55-33 84l-24 0c32-30 44-104-32-141 39 50 23 113-26 141l-47 0c32-41 20-66-3-89 2 7 3 14 3 22 2 24-6 49-26 67l-36 0c35-13 45-38 44-66-2-18-8-36-18-51-12-9-24-18-33-29-19-20-32-38-40-56 3 21 10 42 16 64 6 24 11 49 7 75-3 21-11 42-28 63l-25 0z m282-99c-3-19-12-36-24-52-24-32-63-57-98-71 13 21 33 42 62 61 33 20 51 41 60 62z m-248-218c13-22 32-42 53-58 0 0 0 0 0 0 28-18 48-57 12-86 8 26-13 64-36 79l1 1c-7 5-13 12-18 19-9 14-14 29-12 45z"/>
<glyph glyph-name="slashed-shield" unicode="&#40;" d="M256 490l-196-60c1-109 11-201 41-271 13-32 30-59 52-81 4 11 8 22 12 34-16 18-29 40-39 64-23 58-31 132-31 218l0 7 7 2 144 47c6 12 12 25 18 37z m53-16l-18-33 23-8c6 12 12 23 18 34z m68-21c-7-11-13-23-19-34l26-8c6 11 13 22 20 33z m71-22l-34-52c-1-79-8-148-29-202-23-58-64-100-128-119l-2-1-3 1c-32 10-58 25-80 46-6-9-13-18-19-26 26-28 60-48 103-61 81 24 129 72 158 142 28 70 38 162 38 271z m-212-5l-122-39c1-81 8-151 29-204 1-1 1-2 2-3 24 86 54 166 91 246z m46-2l-135-250c7-16 16-30 26-43 38 95 88 198 133 285z m68-22c-52-97-105-193-167-282 19-20 42-34 72-43 57 18 91 54 112 107 18 44 25 100 27 166l-158-242c36 96 83 191 138 286z"/>
<glyph glyph-name="skull-shield" unicode="&#41;" d="M255 485c-55-32-153-54-215-40 1-160 56-374 217-417 165 44 216 257 217 417-61-14-169 11-219 40z m3-45c32 0 64-5 96-17l35-147-64 0c10-29 7-70-10-99l-17 50-20-55-20 50-19-49-20 54-17-50c-15 27-24 65-10 99l-64 0 35 147c31 10 63 17 95 17z m-173-42l12-3c11-3 25-3 39-1l-3-20c-10 0-20 0-29 1 2-59 12-125 36-180 8-20 18-38 30-54l-3-26c-18 21-33 46-44 72-27 62-37 135-38 199z m349 0l0-12c0-64-10-136-36-198-12-28-27-54-47-75l-3 24c13 17 24 37 33 58 23 55 33 121 34 180-9-1-19-1-29 0l-4 19c15-2 30-1 41 1l11 3z m-261-42l-12-51 75 7c-13 26-36 38-63 44z m171 0c-26-8-49-20-63-44l74-7z m-86-59l-7-9-23-31 15-11 15 21 16-21 15 11-23 31z m-57-137l15-57 23 47 19-59 20 60 21-48 16 56c16-18 21-39 18-66-48-37-97-43-148 0 0 24-1 45 16 67z"/>
<glyph glyph-name="shield-1" unicode="&#42;" d="M256 496c25-24 100-72 150-72l0-96c0-96-75-240-150-312-75 72-150 216-150 312l0 96c50 0 125 48 150 72z"/>
<glyph glyph-name="viking-shield" unicode="&#43;" d="M256 487c-128 0-231-103-231-231 0-128 103-231 231-231 128 0 231 103 231 231 0 128-103 231-231 231z m0-14c120 0 217-97 217-217 0-120-97-217-217-217-120 0-217 97-217 217 0 120 97 217 217 217z m0-18c-8 0-15 0-23-1l0-112c7 2 15 3 23 3 8 0 16-1 23-3l0 112c-8 1-15 1-23 1z m-41-4c-16-4-32-9-46-16l0-138 8 0c8 16 22 30 38 38z m82 0l0-116c16-8 30-22 38-38l8 0 0 138c-14 7-30 12-46 16z m-146-26c-17-11-33-24-46-39l0-110c3 1 6 3 8 4 3 1 4 3 5 4 1 1 1 1 1 4l0 9 32 0z m210 0l0-128 32 0 0-9c0-3 0-3 1-4 1-1 2-3 5-5 2-1 5-3 8-5l0 112c-13 15-29 28-46 39z m-274-64c-19-30-30-66-30-105 0-39 11-75 30-105l0 96c-1 1-1 1-2 2l-10 7 10 7c1 1 1 1 2 2l0 96z m338 0l0-101 4-4-4-4 0-101c19 30 30 66 30 105 0 39-11 75-30 105z m-169-34c-39 0-71-32-71-71 0-39 32-71 71-71 39 0 71 32 71 71 0 39-32 71-71 71z m0-30c23 0 41-18 41-41 0-23-18-41-41-41-23 0-41 18-41 41 0 23 18 41 41 41z m-121-18c0-2-1-4-3-6-3-4-6-6-10-9-5-2-10-5-15-8 5-3 10-6 15-8 4-3 7-5 10-9 2-2 3-4 3-6l35 0c-2 7-3 15-3 23 0 8 1 16 3 23z m121 0c-13 0-23-10-23-23 0-13 10-23 23-23 13 0 23 10 23 23 0 13-10 23-23 23z m86 0c2-7 3-15 3-23 0-8-1-16-3-23l35 0c0 2 1 4 2 6 3 4 7 6 10 8 4 3 9 6 13 9-4 3-9 6-13 9-3 2-7 4-10 8-1 2-2 4-2 6z m65-41c-3-2-6-4-8-5-3-2-4-4-5-5-1-1-1-2-1-4l0-9-32 0 0-128c17 11 33 24 46 39z m-302-2l0-110c13-15 29-28 46-39l0 128-32 0 0 9c0 2 0 3-1 4-1 1-2 3-5 4-2 1-5 3-8 4z m64-21l0-138c14-7 30-12 46-16l0 116c-16 8-30 22-38 38z m166 0c-8-16-22-30-38-38l0-116c16 4 32 9 46 16l0 138z m-102-45l0-112c8-1 15-1 23-1 8 0 15 0 23 1l0 112c-7-2-15-3-23-3-8 0-16 1-23 3z"/>
<glyph glyph-name="vibrating-shield" unicode="&#44;" d="M256 460c-18-16-47-34-78-50-31-16-64-31-88-40 2-11 9-33 19-58 13-31 30-67 49-102 19-34 39-68 57-92 10-12 18-22 26-28 7-6 13-9 15-9 2 0 8 3 15 9 8 6 16 16 26 28 18 24 38 58 57 92 19 35 36 71 49 102 10 25 17 47 19 58-24 9-57 24-88 40-31 16-60 34-78 50z m-132-10c-32-16-64-32-96-48l-5-2 0-6c0-11 4-26 10-45 7-18 15-38 23-55l16 8c-8 16-16 35-21 53-5 14-8 26-9 34 30 15 60 30 90 45z m264 0l-8-16c30-15 60-30 90-45-1-8-4-20-9-34-5-18-13-37-21-53l16-8c8 17 16 37 23 55 6 19 10 34 10 45l0 6-5 2c-32 16-64 32-96 48z m-132-36l7-8c7-8 27-20 49-30 22-9 45-18 59-23l6-3 0-6c0-6-2-13-5-21-2-8-6-18-11-29-9-21-22-46-35-71-13-24-27-47-38-64-6-9-11-16-16-22-2-2-4-5-6-6-3-2-5-4-10-5l0 0 0 0c-5 1-7 3-10 5-2 1-4 4-6 6-5 6-10 13-16 22-11 17-25 40-38 64-13 25-26 50-35 71-5 11-9 21-11 29-3 8-5 15-5 21l0 6 6 3c14 5 37 14 59 23 22 10 42 22 49 30z m0-26c-12-11-30-20-49-28-19-9-39-16-53-22 1-2 1-6 3-9 2-8 6-17 10-28 10-20 22-45 35-69 13-24 26-47 37-63 6-9 11-16 14-20 2-1 2-2 3-3 1 1 1 2 3 3 3 4 8 11 14 20 11 16 24 39 37 63 13 24 25 49 35 69 4 11 8 20 10 28 1 3 2 6 3 9-14 6-34 13-53 22-19 8-37 17-49 28z m-57-304l-14-11c0 0 10-13 23-25 13-13 29-27 48-27 19 0 35 14 48 27 13 12 23 25 23 25l-14 11c0 0-9-12-21-23-12-12-28-22-36-22-8 0-24 10-36 22-12 11-21 23-21 23z"/>
<glyph glyph-name="unstable-orb" unicode="&#45;" d="M147 493l45-27-26-63c-30-18-54-46-69-79l-40 18 25 40-63 51 0-24 38-31-28-44 62-27c-6-18-9-36-9-55 0-4 0-7 0-10l-26-7-37 25 0-22 34-24 31 9c3-15 7-30 13-44l-67-20 22-44-33-6 0-19 61 11-23 47 49 14c16-27 39-50 66-65l5-34-49-11 21-33 23 0-13 21 39 8-5 39c20-9 43-14 67-14 15 0 30 2 44 6l80-29 24-31 23 0-31 41 37 33-46 38c20 21 34 47 42 75l11-17 49 65 0 31-48-64-8 11c1 7 2 13 2 20 0 32-9 62-24 88l21 28-16 47 30 0-15 78-19 0 12-59-71 0-13-25c-25 13-53 21-84 21-6 0-12 0-17-1l-34 29 7 15-33 20z m55-53l17-15c-9-2-18-5-27-9l10 24z m167-25l31 0 15-44-11-14c-12 16-27 31-44 42l9 16z m-109-4c88 0 160-71 160-159 0-88-72-160-160-160-19 0-37 3-54 10-1 0-3 1-4 1l0 0c-1 1-3 1-4 2-3 1-6 2-8 4l-1 0c-7 3-14 7-20 12l0 0c-19 13-34 29-46 48l0 1c-3 5-5 10-8 15l0 0c-6 13-11 28-13 43l0 0c-1 6-1 13-1 19l0 0c0 2 0 3 0 5 0 16 2 32 7 47l0 0c2 6 4 12 6 18l0 0c11 24 28 45 49 61l0 0c6 5 12 9 18 13l0 0c5 2 9 4 13 6 0 0 0 0 0 0 20 9 43 14 66 14z m0-18c-41 0-78-18-104-46l14-27 65 56 58-50-61 26-39-40 34-12 9-53 100-78-113 54-67-8 74-59-63-10c25-22 57-35 93-35 14 0 27 2 39 5l-104 23 0 0 102-7-39 50 74-52c19 12 35 27 47 46l-121 99 100 20-67 79 101-72c-20 53-71 91-132 91z m-117-62c-15-23-24-50-24-79 0-6 1-11 1-17l85 14-3 36-52 13z m255-50l-88-15 74-82c11 20 17 43 17 68 0 10-1 20-3 29z m-273-69c6-20 16-38 30-54l26 10z m253-94l30-26-24-22-52 19c17 7 32 17 46 29z"/>
<glyph glyph-name="trident-shield" unicode="&#46;" d="M256 484l-77-92-6 2c-41 13-71 27-99 51 1-28 5-62 11-95 8-42 20-81 35-103 15-23 31-38 38-55 4-9 5-19 0-28-3-8-10-15-21-22 2-20 12-40 31-60 21-20 51-39 88-54 38 15 67 34 88 54 19 20 29 40 31 60-10 7-17 14-21 22-5 9-4 19 0 28 7 17 23 32 39 55 14 22 26 61 34 103 6 33 10 67 11 95-28-24-58-38-99-51l-6-2z m0-78l31-61-22 0 0-62 51 0 43 59-6 5-12 8 61 31-12-67-16 12-49-66-60 0 0-142 22 0-31-61-24 48-7 13 22 0 0 142-59 0-50 66-16-12-12 67 48-24 13-7-18-13 44-59 50 0 0 62-22 0z"/>
<glyph glyph-name="templar-shield" unicode="&#47;" d="M256 490l-4-2c-96-48-93-47-189-63l-9-2 1-8c16-121 48-218 85-285 18-34 38-60 57-78 20-19 40-29 59-29 19 0 39 10 59 29 19 18 39 44 57 78 37 67 69 164 85 285l1 8-9 2c-96 16-93 15-189 63z m-32-42c16 0 16 0 32-16 16 16 16 16 32 16-16-16-16-16-16-32l3-48 109 0c0 0 16 0 32 16 0-16 0-16-16-32 16-16 16-16 16-32-16 16-32 16-32 16l-108 0 12-208c0 0 0-32 16-64-16 0-48 0-48 16 0-16-32-16-48-16 16 32 16 64 16 64l12 208-108 0c0 0-16 0-32-16 0 16 0 16 16 32-16 16-16 16-16 32 16-16 32-16 32-16l109 0 3 48c0 16 0 16-16 32z"/>
<glyph glyph-name="zebra-shield" unicode="&#58;" d="M123 491c-4 0-9 0-13 0-12-27-22-57-31-88 61 2 126-5 186-24-34 29-86 51-148 69 0 0 0 0 0 0l0 0c0 0 0 0 0 0 4 0 7 0 10 0 103 0 204-66 244-121-55 19-172 41-263 43 65-19 134-61 169-97-61 31-148 64-211 74-2-14-4-29-6-43 98-17 168-90 209-161-82 81-150 109-212 123-1-12-1-24 0-37 75-13 155-63 195-115-37 3-57 3-83 0 14-16 21-31 27-47-28 23-74 45-104 58 23 13 59 11 84 13-28 27-76 46-117 50 8-63 28-121 67-165 7 2 15 4 22 6l-37 62 78-45c41 21 81 51 117 85-20 53-67 105-131 159 65-24 134-73 171-117 9 11 18 22 27 34-8 32-71 92-127 126 66-13 133-47 158-83 12 20 24 40 34 60-31 50-78 93-162 132 80-15 143-47 185-84 5 11 9 21 12 32-103 67-216 102-350 101z"/>
<glyph glyph-name="winged-shield" unicode="&#59;" d="M134 475c-30-30-38-72-24-108-36 20-64 55-74 98-25-73 10-151 77-183-32-9-68 2-93 33 13-64 62-104 112-94-7-31-31-50-62-45 34-27 71-27 91-2 13-22 27-44 45-66l-24-12c17-27 43-53 76-77 32 23 56 49 73 75l-23 11c18 23 34 46 47 69 20-25 57-25 92 2-32-5-56 14-62 45 49-10 98 30 111 94-25-31-60-42-92-33 67 32 101 110 77 183-10-43-38-78-75-98 14 36 7 78-23 108 13-51-15-103-64-121-39-3-82-3-121 0-49 18-77 70-64 121z m252-131c-4-92-47-185-128-266-82 82-124 174-127 266 75-14 179-14 255 0z"/>
<glyph glyph-name="ample-dress" unicode="&#60;" d="M288 496l32-16c0 0-25-44-16-64 5-11 32-16 32-16-16-32-32-80-32-96 80-48 80-144 160-176 0-64-80-112-208-112-128 0-208 48-208 112 80 32 80 128 160 176 0 16-16 64-32 96 0 0 27 5 32 16 9 20-16 64-16 64l32 16c0-32 16-48 32-48 16 0 32 16 32 48z"/>
<glyph glyph-name="android-mask" unicode="&#61;" d="M265 493l0-302-18 0 0 302c-62-3-116-34-150-81l35-61c4 1 8 2 13 2 25 0 46-21 46-47 0-22-16-41-37-45l0-174c14-22 27-42 41-61l0 117 122 0 0-117c14 19 27 39 41 61l0 174c-21 4-37 23-37 45 0 26 21 47 46 47 5 0 9-1 13-2l35 61c-34 47-88 79-150 81z m161-98l-30-52c11-9 18-22 18-37 0-22-16-41-37-45l0-144c10 16 19 32 28 49 27 51 46 100 46 132 0 35-9 68-25 97z m-340-1c-16-28-25-61-25-96 0-32 19-81 46-132 9-17 18-33 28-49l0 144c-21 4-37 23-37 45 0 15 7 28 18 37l-30 51z m127-270l0-101 86 0 0 101z"/>
<glyph glyph-name="armor-vest" unicode="&#62;" d="M260 490c-35 0-63-5-82-13-10-3-17-8-23-13-3-3-5-6-7-9-21-19-36-49-46-82-9-31-14-66-11-97-2-23 10-55 25-81l0 0 0 0c34-35 83-61 135-68l0 255c3 0 6 0 9 0 3 0 7 0 10 0l0-255c62 9 120 45 152 91 7 18 9 38 8 54 3 33-2 69-12 101-9 34-25 64-46 83-2 3-4 5-7 8-5 5-13 10-22 13-20 8-47 13-83 13z m0-18c34 0 59-6 76-12 8-3 14-6 17-9 3-4 4-6 4-6 0-11-9-21-26-30-18-9-43-14-71-14-28 0-53 5-70 13-18 9-26 19-26 31 0 0 1 2 4 6 3 3 9 6 17 9 16 6 42 12 75 12z m112-44c11-15 22-37 29-60 7-25 11-53 11-79-16 14-29 35-37 58-8 24-12 51-8 74 2 2 3 5 5 7z m-223 0c0-1 1-3 2-4 5-26 1-55-9-80-8-21-19-39-33-52 0 25 4 52 11 76 7 23 17 44 29 60z m242-269c-37-28-83-47-131-51l-1-1 0 1c-48 4-93 22-129 50-1-3-2-6-2-9 0-16 13-32 37-44 23-13 58-21 95-21 38 0 72 8 96 21 24 12 37 28 37 44 0 3-1 6-2 10z m-276-34c-17-13-26-27-26-42 0-11 10-29 26-43 14-12 32-21 47-23 10 23 20 42 32 57-14 3-27 8-38 14-19 10-33 22-41 37z m290 0c-7-15-22-27-40-37-12-6-24-11-38-14 11-15 22-34 31-57 15 2 33 11 47 23 16 14 27 32 27 43 0 15-9 29-27 42z"/>
<glyph glyph-name="armored-pants" unicode="&#63;" d="M89 480l0-45 167-29 167 29 0 45-167-29z m0-69l0-187c50-16 90-9 140 0 1 34 13 60 27 61 14-1 26-27 27-61 49-16 90-9 140 0l0 187-167-29z m0-213l0-69c46-7 86-14 132 0l0 69c-46-7-86-14-132 0z m202 0l0-69c46-7 86-14 132 0l0 69c-46-7-86-14-132 0z m-199-94l0-64c44-7 82-13 125 0l0 64c-43-7-81-13-125 0z m202 0l0-64c44-7 82-13 125 0l0 64c-43-7-81-13-125 0z"/>
<glyph glyph-name="black-belt" unicode="&#64;" d="M255 451c-65 1-141-22-233-86-2-1-2-2-3-3-1-22 0-44 0-66 41-25 101-46 142-55-40-55-66-113-85-170l-2-5 50-44 5 11c30 61 55 122 95 179 7-6 16-12 27-11 5 0 10 2 13 5l4 0c11-1 22 0 32 4 3 1 5 2 8 3 43-51 65-121 80-177l4-15 58 57-2 6c-19 47-38 110-76 159 41 11 77 28 109 49 10 7 5 3 12 8l-1 62c-4 3-6 4-10 6-52 27-110 67-184 79-14 3-28 4-43 4z m0-18c14 0 28-1 41-4 67-11 121-47 172-75-9-5-19-10-29-14-47 29-98 53-155 61-65 9-138-5-221-58-8 4-16 8-23 12 86 59 156 79 215 78z m-8-47c12 0 23-1 34-3 50-6 95-27 138-52-32-13-65-22-98-27-12 14-29 19-46 21l-7 1-2-5c-5 2-10 4-14 5-4 2-8 3-13 3-20-1-33-10-39-19-2-2-3-4-4-7-38 6-75 16-113 31 61 38 115 52 164 52z m228-48l0-28c-33-23-72-41-115-51-9 9-18 17-28 25 0 1-1 3-2 4 50 8 98 25 145 50z m-438-2c52-26 105-43 157-50 0-1 1-2 1-3-7-8-15-17-22-26-44 9-90 24-136 48z m203-25c6 0 13-4 18-7-5-13-8-26-8-40l-1 0c-10 6-20 13-27 18-7 5-10 10-11 10 5 16 20 19 29 19z m39-5c14-2 24-7 32-19 5-9 7-17 6-24-1-8-4-16-9-25-3-6-7-9-14-11-5-2-12-3-20-3-11 28-8 54 5 82z m-71-36c8-6 17-12 25-17-53-63-83-134-115-202l-23 20c23 68 56 136 113 199z m127-12c49-45 71-118 94-175l-28-28c-15 54-37 120-80 170 1 2 2 3 3 5 5 9 9 18 11 28z m-87-14c1 0 2-1 3-1 1-7 2-13 4-20-3-3-6-4-5-4-2 0-9 3-16 8 5 6 10 11 14 17z"/>
<glyph glyph-name="breastplate" unicode="&#91;" d="M324 445c-44-20-91-26-136-2l0-40c46-22 90-21 136 1z m-190-7c-7 0-14-1-20-1-3-24 6-52 24-74 8 5 14 10 20 16-6 19-10 39-12 58-2 1-4 1-6 1-2 0-4 0-6 0z m245 0c-2 0-4 0-6 0-2 0-4 0-7-1-1-19-5-39-11-58 6-6 12-11 19-16 19 22 28 50 25 74-6 0-13 1-20 1z m-284-4c-14-3-26-7-37-14 0-29 13-60 34-77l-2-1c12 2 22 6 32 11-19 24-29 53-27 81z m323 0c2-28-8-57-27-81 9-5 20-9 32-11l-2 1c20 17 34 48 33 77-10 7-22 11-36 14z m-378-28c-13-14-20-34-20-62 18-5 34-6 50-5-17 18-27 42-30 67z m432 0c-2-25-13-49-29-67 15-1 32 0 50 5 0 28-7 48-21 62z m-133-16l-1-1c-24-12-49-19-73-20l0-214c73 26 123 81 123 144 0 13-2 26-6 38-18 9-33 21-44 32l-5 4 2 6c2 3 3 7 4 11z m-165-1c1-3 2-7 4-10l1-6-4-4c-12-12-28-25-48-34-4-12-5-24-5-36 0-63 50-119 124-145l0 215c-24 1-48 8-72 20z m-17-204c-6-5-11-10-16-15 22-17 50-35 79-43 5 6 11 11 17 16z m198 0l-80-42c6-5 12-11 17-17 29 8 58 26 80 43-5 6-11 11-17 16z m-227-29c-6-7-12-15-17-23 23-18 53-38 84-45 4 8 8 16 13 23-31 10-58 28-80 45z m257-1c-22-17-50-35-80-45 4-7 9-14 12-22 31 6 61 25 85 44-5 8-11 16-17 23z m-284-38c-6-10-12-20-17-30 28-27 59-42 95-46 2 10 5 20 9 30-33 8-64 28-87 46z m311-1c-24-19-54-38-88-46 4-9 7-19 9-29 36 4 67 19 95 46-5 10-11 19-16 29z"/>
<glyph glyph-name="dorsal-scales" unicode="&#93;" d="M448 489c-20 0-40-2-61-7 42-27 80-62 109-105l0 108c-14 3-29 4-43 4-1 0-3 0-5 0z m-71-23l3-71c43-45 70-100 91-161 9-1 17-2 25-3l0 110c-28 52-70 95-119 125z m-32-92c-85-1-142-28-194-76 98-4 199-47 262-138 15 10 27 22 34 36 4 9 7 18 8 29-19 53-43 105-80 148-11 1-21 1-30 1z m-195-94l38-61c59-17 106-55 154-96 20 8 39 17 56 27-60 85-155 125-248 130z m322-65c-4-24-17-47-37-63-24-20-53-33-81-45 7-28-3-55-17-79l1 0-6-12 164 0 0 197c-8 0-16 1-24 2z m-283-16c-65-30-122-81-149-149 0-7-10-21-11-29 50 26 106 41 163 41 43 1 86-7 128-26 12 21 22 44 15 69-44 38-90 76-146 94z m3-155c-45 0-90-11-131-28l246 0c1 1 2 3 3 4-39 17-79 24-118 24z"/>
<glyph glyph-name="claws" unicode="&#94;" d="M134 487c-3-5-16-24-33-51-19-31-40-68-49-94-5-16-8-44-9-67 0-3 0-5-1-7 4 1 7 2 11 2 6 0 12-1 18-3 13-3 25-9 36-15 2-2 5-3 7-4 1 1 2 2 3 3 18 18 37 41 45 57l0 0c8 15 25 52 39 90 13 33 22 68 23 89z m155 0c0-21 9-56 22-89 14-38 31-75 39-90l0 0c8-16 27-39 45-57 1-1 2-2 3-3 2 1 5 2 7 4 11 6 23 12 36 15 6 2 12 3 18 3 4 0 7-1 11-2-1 2-1 4-1 7-1 23-4 51-9 67-9 26-30 63-49 94-17 27-30 46-33 51z m-235-235c-4-1-7-1-10-3-5-3-10-10-13-21-3-11-5-25-5-38 0-6 0-12 0-17 33 26 61 44 86 55-4 2-9 5-14 8-10 6-21 11-31 14-5 1-8 2-12 2z m403 0c-4 0-7-1-12-2-10-3-21-8-31-14-5-3-10-6-14-8 25-11 53-29 86-55 0 5 0 11 0 17 0 13-2 27-5 38-3 11-8 18-13 21-3 2-6 2-10 3z m-304-31c-35-5-75-28-136-80 2-11 9-22 17-34 38 38 99 75 156 92-11 11-22 19-37 22z m206 0c-15-3-26-11-37-22 57-17 118-54 156-92 8 12 15 23 17 34-61 52-101 75-136 80z m-165-40c-22-6-46-17-69-30 29-12 52-34 69-59 17-23 28-49 31-71 11 25 15 59 9 90-4 22-12 43-26 58-4 5-9 9-14 12z m124 0c-5-3-10-7-14-12-14-15-22-36-26-58-6-31-2-65 9-90 4 22 15 48 31 71 17 25 41 47 69 59-23 13-47 24-69 30z m-213-41c-20-13-38-27-53-40 9-19 30-42 57-59 29-17 62-27 96-24-26 14-48 34-65 57-16 21-28 43-35 66z m302 0c-7-23-19-45-35-66-17-23-39-43-65-57 34-3 68 7 96 24 27 17 48 40 57 59-15 13-33 27-53 40z"/>
<glyph glyph-name="chain-mail" unicode="&#95;" d="M175 451l-31-18-100-58-11-6-10-6-6-3 66-113 2 1 5 3 9 5 0 0 56 32-9-196 0-3-1-24 222 0 0 3-1 7 0 17-9 196 55-32 0 0 14-8 0 0 2-1 66 113-6 3-10 6-95 55-16 9-22 13-9 5c-11-24-43-41-81-41-37 0-69 17-80 41z m-18-32c39-35 91-46 137-34l-7-14 13-25 13 25-9 17c19 6 36 16 51 31l113-66-46-81-30 17 12 23-13 24-13-24 11-21-19 11-34 20 1-8-13 23-13-24 13-24 13 24 1-25 0 0 3-49-11 20-13-25 10-18-61 0 9 17-13 24-13-24 9-17-88 0 4 77 0 0 1 29-34-20-52-30-46 81z m5-16l-13-25 13-24 13 24z m270-40l-13-24 13-25 13 25z m-303-18l-13-24 13-24 13 24-13 24z m114-38l-14-24 14-24 13 24-13 24z m55-20l-13-24 13-24 14 24z m-99-9l-13-24 13-24 13 24-13 24z m142-48l1-14-9 0z m-172-31l173 0 1-20-174 0z m-1-37l39 0-11-20 13-24 13 24-10 20 120 0-11-21 13-25 11 21 2-45-53 0 8 15-13 25-14-25 8-15-118 0z m167 0l9 0 1-17z"/>
<glyph glyph-name="dress" unicode="&#96;" d="M343 49c-2-32-172-30-174 0-6 163 19 224 26 280 2 14-14 38-19 55-8 35 4 66-8 95l18 7c10-41 38-70 70-70 32 0 60 29 70 70l18-7c-12-29 0-60-8-95-5-17-21-41-19-55 7-56 32-117 26-280z"/>
<glyph glyph-name="fur-shirt" unicode="&#123;" d="M172 484c-14-7-27-15-40-23l-35-5c7-2 15-3 17-7-8-6-16-12-24-18-16-3-27-9-38-16l15-3c-16-10-24-20-34-36l28 2c4-3 8-5 8-8-3-7-4-12-4-18l16 5c10-9 12-23 17-35 12 6 23 11 30 19l-10-19c22 11 31 21 48 36-1-16-2-32-3-49-13-22-17-45-16-68 5 6 11 18 16 13 0-4 1-9 1-13-7-4-10-16-15-25 5 3 5 6 15 8 1-12 1-24 2-36 22-5 44-7 67-7 12-4 19-9 25-15l1 15c16 2 30-4 46-9l19 14c4 1 8 1 13 2l-2-13 8 14c3 1 6 1 9 2 1 3 1 7 1 11l18-13-11 34 11-10-13 33c0 5 1 10 1 15l14-14c-6 33-9 76-15 106l16-5 27-24-4 17c12-2 21-6 32-10 12 20 8 34 37 40l-6 30c5 4 13 5 19 7-16 5-31 15-51 31l11 6c-9 2-19-1-27 4l24 14c-2 0-36 1-44-2-15 8-32 16-52 23-9-7-11-11-21-16l-5 11c-4-9-9-16-17-19 1 6 5 19 5 19-7-8-12-17-26-24-18-3-36-2-56 5-2-8 1-14 2-20-13 6-14 16-18 26-10 5-21 11-32 18z m192-330c-42-10-87-18-129-17l19-13-48 16c-18 2-35 7-52 14-7-11-27-17-39-23l26 1c-6-16-19-28-30-41 0 0 10 3 17 4 27-15 56-29 68-52 42-23 81-17 119-2 7 12 16 23 27 32 22 6 29 2 40 0-5 5-6 12-17 15 11 6 23 10 37 13-4 7-8 13-12 20l22-7c-19 12-34 25-48 40z"/>
<glyph glyph-name="large-dress" unicode="&#124;" d="M189 469l-20-11c0-32 1-87 14-131 58-14 88-14 146 0 13 43 14 87 14 131l-20 11c-5-6-12-15-22-27-7-8-15-16-22-23-4-3-7-6-11-8-3-2-7-4-12-4-5 0-8 2-12 4-4 2-7 5-11 8-7 7-15 15-22 23-10 12-17 21-22 27z m-8-159l-124-248c1-1 1-2 2-3 2-3 6-5 11-8 10-5 26-10 45-14 38-8 90-12 141-12 52 0 103 4 141 12 19 4 35 9 45 14 5 3 9 5 11 8 1 1 1 2 2 3l-124 248c-58-14-92-14-150 0z"/>
<glyph glyph-name="leather-armor" unicode="&#125;" d="M340 479l14-3c-1-3-3-7-4-10-6-14-14-29-20-35-5-5-20-10-33-12-11-1-23-4-34-4l0-16-14 0 0 16c-12 0-24 3-34 4-13 2-28 7-33 12-6 6-14 21-20 35-1 3-3 7-4 10l14 3c9-12 38-48 84-48 46 0 75 36 84 48z m32-7l32-6-30-75 33-49-10-66c-2-1-4-3-6-4-11-8-26-15-39-15-4 0-12 4-20 11-8 7-17 16-25 26-14 18-24 34-26 37l0 18 11 0 0 18-11 0 0 14 11 0 0 18c0 0 39 8 50 19 11 10 18 26 24 41 2 5 4 9 6 13z m-232 0c2-4 4-8 6-13 6-15 13-31 24-41 15-13 50-19 50-19l0-18 11 0 0-14-11 0 0-18 11 0 0-18c-2-3-12-19-26-37-8-10-16-19-25-26-8-7-16-11-20-11-13 0-28 7-39 15-2 1-4 3-6 4l-10 66 33 49-30 75z m123-91l0-14-14 0 0 14z m0-32l0-23 1-2c0 0 13-21 29-41 8-10 18-21 27-29 10-8 20-15 32-15 16 0 30 7 42 13l-2-15-55-40-81 98-81-98-55 40-2 15c12-6 26-13 42-13 12 0 22 7 32 15 10 8 19 19 27 29 17 20 29 41 29 41l1 2 0 23z m-7-83l79-94 33 25-8-37c-13-3-64-15-104-15-40 0-91 12-104 15l-8 37 33-25z m90-128l9-35c-6-2-12-4-20-6-4-1-8-3-13-4l-6 40c11 2 22 4 30 5z m-180 0c8-1 19-3 30-5l-6-40c-5 1-9 3-13 4-7 2-14 4-20 6z m132-8l7-41c-14-4-28-6-40-7l0 46c11 0 22 1 33 2z m-84 0c11-1 22-2 33-2l0-46c-12 1-26 3-40 7z m164-38l11-44c0 0-56-20-86-25-31-4-63-4-94 0-30 5-86 25-86 25l11 44c8-3 20-7 37-12 27-8 59-17 85-17 26 0 58 9 85 17 17 5 29 9 37 12z"/>
<glyph glyph-name="lamellar" unicode="&#126;" d="M158 437c-21-14-46-23-69-26 6-49 26-84 46-98 10-7 20-9 30-6 9 3 19 11 28 26-27 30-32 71-35 104z m197 0c-3-33-8-74-35-104 9-15 19-23 28-26 10-3 20-1 30 6 20 14 40 49 46 98-24 3-47 11-69 26z m-98-13c-32 0-59-7-76-18 1-5 2-11 4-16 16 7 42 11 72 11 29 0 55-4 71-11 2 5 3 11 4 16-17 11-44 18-75 18z m-182-44l-47-46c29-37 63-57 86-59 1 0 2 0 4 0 1 8 3 15 6 23-22 15-39 43-49 82z m363 0c-10-39-27-67-49-82 0 0 0 0 0 0 3-8 5-15 7-23 1 0 2 0 3 0 23 2 57 22 86 59z m-245-13c4-10 10-18 18-26l5-5-3-6c-2-3-4-7-6-10 33-11 68-11 99 1-2 3-4 6-6 9l-3 6 5 5c8 7 13 16 18 25-44-10-85-8-127 1z m125-62c-38-15-83-16-123 0-8-7-15-12-24-15-10-4-20-4-30-1-7-20-11-42-11-64 0-7 1-15 2-23l122 30 3 1 2-1 123-30c0 8 1 16 1 23 0 22-4 44-11 64-10-3-20-3-30 1-9 3-16 8-24 15z m159-8c-26-24-52-38-77-40 0 0 0 0-1 0 1-8 2-16 2-25 23-3 55 0 90 15z m-441 0l-14-50c35-15 67-18 90-15 0 9 1 17 2 25 0 0-1 0-1 0-24 2-51 16-77 40z m221-83l-122-30c2-8 5-16 8-25 34 8 71 12 108 12 3 0 6 0 9 0 40 0 79-4 112-12 3 8 5 17 7 25z m-5-62c-35 0-71-3-102-10 4-8 8-16 12-25 28 3 59 4 90 4 2 0 5 0 8 0 33 0 66-1 95-4 4 8 8 16 11 24-33 8-73 12-114 11z m0-50c-27 0-54-1-80-2 6-9 12-18 18-27 5-1 14-2 26-3 13-1 29-1 44-1 16 0 32 1 45 2 11 0 19 1 23 2 6 9 12 17 17 26-28 2-61 4-93 3z"/>
<glyph glyph-name="metal-skirt" unicode="&#92;" d="M199 487l-30-88c0-3 2-5 5-8 4-3 11-7 19-10 16-5 40-8 63-8 23 0 47 3 63 8 8 3 15 7 19 10 3 3 5 5 5 8l-29 88z m-160-16l-11-46 131 0 15 46z m299 0l15-46 132 0-12 46z m-123-14l82 0 0-52-82 0z m18-18l0-16 46 0 0 16z m-163-32c-5-12-11-29-15-49 51-3 89-5 123-7l2 16c-7 3-13 6-18 10-6 6-11 14-11 23l0 1 2 6z m289 0l2-6 0-1c0-9-5-17-11-23-5-4-11-7-17-10l1-16c34 2 72 4 123 7-4 20-9 37-15 49z m-162-45l-28-231 87-101 87 101-28 231c-17-5-38-7-59-7-21 0-42 2-59 7z m-146-21c-3-15-6-30-9-46 53-3 94-6 128-8l6 46c-34 2-74 4-125 8z m410 0c-51-4-91-6-124-8l5-46c34 2 75 5 128 8-3 16-6 31-9 46z m-421-64c-1-7-2-13-3-20-1-9-2-17-3-25 53-4 94-6 129-8l5 45c-34 2-75 5-128 8z m432 0c-53-3-93-6-128-8l5-45c35 2 76 4 129 8-1 8-2 16-3 25-1 7-2 13-3 20z m-440-63c-2-16-3-32-4-46 52-3 93-6 127-8l6 46c-35 2-76 4-129 8z m448 0c-53-4-94-6-128-8l5-46c34 2 75 5 127 8-1 14-2 30-4 46z m-453-64c-1-16-2-30-2-38 0 0 0-1 4-4 4-3 10-6 18-9 17-5 41-10 66-14 27-4 55-7 81-9l-43 49 2 17c-34 2-74 5-126 8z m458 0c-52-3-92-6-126-8l2-17-43-49c26 2 54 5 81 9 25 4 49 9 66 14 8 3 14 6 18 9 4 3 4 4 4 4 0 8 0 22-2 38z"/>
<glyph glyph-name="metal-hand" unicode="&#57344;" d="M284 493c-39-26-52-67-58-113l58-3c-2 42-3 86 0 116z m-99-4c-35-32-43-77-44-127l54 6c-6 44-10 89-10 121z m201-24c-29-32-56-71-68-114l60-13c1 42 4 91 8 127z m-296-18c-30-35-33-80-28-128l53 13c-11 41-21 84-25 115z m140-86c-5-38-7-80-5-117l44 5c4 0 8 0 12 0-2 39-4 74-5 109l-46 3z m-38-12l-45-5c0-37 2-76 7-107l49 5-11 107z m131-18c-7-27-13-56-16-84 17-3 32-10 43-21 3-2 5-5 8-8l9 103-44 10z m-210-19l-41-10c4-27 9-53 16-77 5 4 12 7 19 8l25 2z m378-63c-10-26-31-42-62-63l33-47c31 31 41 68 29 110z m-209-18c-3 0-7-1-11-1l-162-16c-5-1-8-2-11-5-3-3-5-8-7-15-3-13-3-33 1-55 7-42 25-90 42-119l31 0-27 162 19 3 27-165 32 0-10 170 19 1 10-171 32 0 9 172 19-1-10-171 40 0c24 35 41 92 36 137-2 23-10 43-24 56-12 11-29 18-55 18z m136-61c-12-6-25-10-38-13 2-21 0-44-5-65 25 8 49 22 69 41l-26 37z"/>
<glyph glyph-name="mechanical-arm" unicode="&#57345;" d="M325 473c-2 0-3 0-4-1-9-2-15-11-13-20 0 0 0 0 0 0l-23-28-3-4 2-5 14-41-143-24c12-10 20-25 19-42 0-4 0-8-1-11l130 54 0 1c6-8 16-12 27-11 15 3 24 17 22 32-3 13-13 22-26 22-2 0-4 0-6 0-3-1-6-2-8-3l-9 24 19 23c2-1 4-1 7 0 9 2 15 11 13 21-2 8-9 13-17 13z m115-29c-2 0-3 0-4-1-4-1-8-3-10-7l-39 6-4 1-3-3-39-29c7-3 12-6 17-11l30 23 38-6c4-6 11-9 19-7 9 3 14 12 12 21-2 8-9 13-16 13-1 0-1 0-1 0z m-40-58l-1 0-31-2c1-3 2-5 2-8 1-4 1-7 1-11l27 2 28-10c0 0 0-1 0-1 3-9 12-15 21-12 9 2 15 11 12 21-2 9-11 14-21 12-1-1-3-1-4-2l-32 10z m-34-39c-3-5-7-10-12-14l42-24c0-2 1-4 1-5 2-10 12-15 21-13 9 3 15 12 12 21-2 10-12 15-21 12 0 0-1 0-1 0z m-244-4c-16 0-28-10-32-24l63 4c-5 11-16 20-30 20 0 0-1 0-1 0z m33-39l-65-4c4-13 16-23 31-24 17-1 32 12 34 28z m9-26c-10-13-26-21-44-21-1 0-2 0-3 1l53-85c8 20 26 34 47 38z m64-85c-24 0-43-19-44-42 0-7 1-14 3-20l72 50c-7 7-18 12-29 12-1 0-2 0-2 0z m42-28l-72-49c8-6 17-11 28-11 25-1 45 18 46 42 1 7 0 13-2 18z m-87-60l-7-44 104 0-9 42c-12-11-28-18-45-17-17 1-32 8-43 19z m-38-62l0-25 169 0 0 25z"/>
<glyph glyph-name="mecha-mask" unicode="&#57346;" d="M229 479l-43-72 31-77 15-110 12-11 24 0 12 11 15 110 31 77-43 72-18 0 0-151-18 0 0 151z m-81-16l-46-58 72-16-8 20 33 54z m165 0l33-54-8-20 72 16-46 58z m-253-67l12-45 131-53-4 28-17 43z m392 0l-122-27-17-43-4-28 131 53 12 45z m-363-72l0-73 62-74 0 57 16 32-55 14 0 35z m334 0l-23-9 0-35-55-14 16-32 0-57 62 74z m-228-42l-26-52 0-108 52 39 70 0 52-39 0 108-26 52-11-5-10-65-20-21-40 0-20 21-10 65-11 5z m-60-114l-13-91 45-28 0 27 70 53 38 0 70-53 0-27 45 28-13 91-16-19 0-63-76 57-58 0-76-57 0 63z m108-57l-58-44 0-28 9-6 53 0 0 23 18 0 0-23 53 0 9 6 0 28-58 44z"/>
<glyph glyph-name="loincloth" unicode="&#57347;" d="M118 487l-26-78 30 0 26 78z m138 0c-11 0-25-5-36-12-11-8-18-18-19-28-1-11 6-25 17-36 11-11 26-18 38-18 12 0 27 7 38 18 11 11 18 25 17 36-1 10-8 20-19 28-11 7-25 12-36 12z m108 0l26-78 30 0-26 78z m-316-16c1 0-2-1-5-4-3-4-6-10-9-17-3-8-6-18-8-25l53 0 15 46z m113 0l-15-46 41 0c-3 8-5 15-4 24 1 8 4 15 8 22z m160 0c4-7 7-14 8-22 1-9-1-16-4-24l41 0-15 46z m97 0l15-46 53 0c-2 7-5 17-8 25-3 7-6 13-9 17-3 3-5 4-5 4z m-372-64c-21-99-21-257-21-382l160 0c3 14 7 27 10 41-16-3-32-6-49-11l-11-3 0 12c0 118-14 235-41 327l-26 0 5 16z m94 0l-6-16-21 0c26-90 39-203 40-316 72 18 134 18 206 0 1 113 14 226 40 316l-21 0-6 16-58 0c-2-3-5-6-8-9-13-13-32-23-50-23-18 0-37 10-50 23-3 3-6 6-8 9z m299 0l5-16-26 0c-27-92-41-209-41-327l0-12-11 3c-17 5-33 8-49 11 4-14 7-28 10-41l160 0c0 125 0 283-21 382z"/>
<glyph glyph-name="leather-vest" unicode="&#57348;" d="M260 492c-38 0-74-4-100-12-13-4-25-10-33-17-8-7-14-17-14-28 0-4 1-9 2-13 4-52-35-118-77-151 10-51 33-103 67-150 40-32 91-50 144-52l0 33c-16 1-32 1-44 2l1 19c12-1 27-2 43-2l0 40c-15-1-30-3-41-6l-6 18c14 4 30 6 47 7l0 34c-5-1-10-1-15-2-28-1-53-5-75-10l-1 0c28 21 64 31 100 31 36 0 72-10 100-31l0 0c-22 5-47 9-76 10-5 1-10 1-14 2l0-34c16-1 33-3 46-7l-5-18c-11 3-26 5-41 6l0-40c16 0 31 1 43 2l1-19c-12-1-28-1-44-2l0-34c54 2 108 19 150 52 35 47 58 98 68 148-44 33-85 102-80 156 1 4 2 7 2 11 0 11-6 21-14 28-9 7-20 13-33 17-27 8-62 12-101 12z m0-18c38 0 72-4 95-12 12-4 21-8 27-13 5-5 7-9 7-14 0-2 0-5-2-8-37 17-83 26-129 26-44 0-89-8-125-24-1 2-1 4-1 6 0 5 2 9 7 14 6 5 15 9 27 13 23 8 57 12 94 12z m-2-41c42 0 83-7 116-20-6-4-12-7-20-10-23-10-57-17-94-17-37 0-70 7-94 17-8 3-15 7-20 11 32 13 72 19 112 19z m-36-63c7-1 13-1 20-2 0-5 1-10 2-16 3-19 6-40 6-53 0-15-6-29-16-40-10-10-25-18-42-23-18-6-41-8-66-7-23 4-42 13-60 28 49-12 92-12 121-3 15 4 26 11 33 18 7 8 11 16 11 27 0 11-3 32-5 50-1 8-3 15-4 21z m72-1c-1-5-2-12-3-20-3-18-5-39-5-50 0-11 3-19 10-27 8-7 19-14 33-18 30-9 72-9 121 3-18-15-36-24-60-28-25-1-47 1-66 7-17 5-31 13-41 23-10 11-16 25-16 40 0 13 3 34 5 53 1 6 2 11 3 16 6 0 13 1 19 1z m121-274c-89-61-217-61-306-1l-2-39c6-8 24-18 49-25 27-7 63-11 98-11 36 0 73 3 104 9 28 7 51 16 63 27l-6 40z"/>
<glyph glyph-name="leather-belt" unicode="&#57349;" d="M256 385c-86 0-226-39-235-110-9-91 78-124 145-129l0 79c-52 0-70 22-66 50 7 56 100 64 156 64 56 0 149-8 156-64 4-28-14-50-66-50l0-79c67 5 154 38 145 129-6 79-149 110-235 110z m72-152l-144 0 0-106 144 0z m-18-22l0-23-82 0 0-20 82 0 0-21-104 0 0 64 32 0z"/>
<glyph glyph-name="gauntlet" unicode="&#57350;" d="M123 487c-11 0-49-83-63-132-8-27 3-75 41-106 9 1 17 3 25 4-23 25-39 51-48 82l-1 4 2 3c26 44 38 69 51 113l4 12 10-8c15-12 24-18 32-22-14 23-32 42-52 50 0 0-1 0-1 0z m20-50c-12-36-24-62-47-100 9-30 26-55 50-79 19 5 33 10 44 15 16 8 26 16 36 24-6 35-18 80-38 118-14 3-27 9-45 22z m90-158c-9-7-20-15-36-22-17-8-41-16-76-23 35-29 65-62 113-82 2 16 10 29 20 40 10 9 22 16 34 16 3 6 6 11 11 15 6 6 16 9 27 9 1 2 3 3 5 5-8 2-16 3-27 6z m120-50c0 0 0 0 0 0-11-4-12-7-17-16-8 1-19 2-25-3-6-7-8-13-10-21-14 3-26-2-34-10-8-8-14-20-16-33 6-2 12-4 18-5 13 15 32 33 51 37 13 13 28 18 41 19 3 4 7 6 12 9-7 12-13 18-20 23z m-232-19c-2-13-8-25 0-46 32-71 41-24 93-23-39 19-66 45-93 69z m268-17c-5-1-9-4-13-6 9-13 17-28 23-44 8 2 15 4 21 7-6 27-19 38-31 43z m-30-14c-8-2-15-4-23-10 9-9 21-25 26-44 8 2 16 4 21 9-6 18-15 34-24 45z m-38-20c-14-5-25-15-35-26l20-26c13 2 26 6 39 13-5 15-19 33-24 39z m109-24c-7-3-14-6-22-8 6-11 11-22 15-33 8 3 15 6 21 10-3 11-8 22-14 31z m-265-31l49-44c12 14 27 24 43 34l-22 25c-25 9-53-2-70-15z m227 14c-7-5-14-8-22-10 5-9 10-19 14-29 8 2 16 4 23 7-4 11-9 22-15 32z m-40-14c-12-7-24-11-37-14l13-27c15 2 28 3 40 9-5 11-10 22-16 32z m98-17c-7-4-14-7-21-10 3-7 5-14 7-21 11 2 21 6 19 14-2 5-3 11-5 17z m-181-7c-16-10-31-21-41-32l1-1c17-15 37-20 45-9 9 11 11 24-5 42z m144-10c-7-4-15-6-22-8 3-7 6-14 9-21 9 1 17 4 19 11-2 5-4 11-6 18z m-39-14c-12-7-25-9-38-10l6-13c10-10 33-11 42-3-2 8-6 17-10 26z"/>
<glyph glyph-name="ninja-armor" unicode="&#57351;" d="M325 480l-102-206 13 0 20 20 20-20 70 0 75 180c-8 5-24 12-41 16-19 6-40 9-55 10z m-139 0c-14-1-35-4-54-10-17-4-33-11-41-16l75-180 36 0 39 78z m29-23l37-84 42 84c-27-6-51-6-79 0z m-127-43l-43-66 66-40 15 16z m336 0l-38-90 15-16 66 40z m-168-146l-20-20 20-31 20 31z m-103-12l0-30 76 0-17 24 6 6z m141 0l6-6-17-24 76 0 0 30z m-129-48l-26-165c114-14 120-14 234 0l-26 165-76 0-15-23-15 23z"/>
<glyph glyph-name="pauldrons" unicode="&#57352;" d="M64 225c3-2 6-3 9-4-12-14-26-27-36-27-1 0-3 0-4 1-12 5-12 33-8 59 4-5 8-8 11-11 8-7 18-13 28-18z m412 18c-8-7-18-13-28-18-3-2-6-3-9-4 12-14 26-27 36-27 1 0 3 0 4 1 12 5 12 33 8 59-4-5-8-8-11-11z m-437 114c-12-34 56-103 91-111 5-1 10-2 15-2 14 0 30 3 34 10 17 28 3 109-23 128-8 5-20 7-35 7-33 0-75-12-82-32z m352 32c-15 0-27-2-35-7-26-19-42-101-23-128 5-7 21-10 34-10 6 0 12 0 15 2 34 12 103 77 91 111-7 20-49 32-82 32z m-111-67l34 13c2 6 4 13 6 19l-63-24-66 25c3-7 5-13 6-19l37-14-32-12c0-6 0-12 1-17l54 20 52-19c0 6 0 12 1 17z m-248-9c-1 2-2 4-3 6-8-8-13-16-13-22 3-24 51-64 78-64 2 0 4 0 6 1 3 1 5 2 7 4-13 7-25 17-32 23-18 16-34 35-43 52z m451 7c-6-12-15-25-26-38-16-17-36-33-52-43 2-3 4-5 7-5 2-1 4-1 6-1 27 0 75 40 78 64 0 6-6 14-13 23z m-305-86c1-1 1-2 1-3 8-19 11-66 8-107l16-1c4 46 0 97-12 121-3-4-8-8-13-10z m143 9c-1-6-3-14-5-24-4-32-6-64-6-96l16 0c0 31 2 62 6 93 1 6 2 12 3 17-5 3-10 6-14 10z"/>
<glyph glyph-name="plastron" unicode="&#57353;" d="M257 494c-30 0-58-5-79-13-10-4-19-10-26-16-4-4-7-8-9-13-15-3-29-6-44-9 28-116 85-190 161-233 75 43 132 116 159 231-16 4-32 8-48 11-2 5-5 9-9 13-7 6-16 12-26 16-21 8-48 13-79 13z m0-18c28 0 54-5 72-12 9-4 16-8 20-12 4-4 5-8 5-11 0-3-2-10-7-18-4-7-12-16-21-24-18-16-43-29-69-29-26 0-51 13-69 29-9 8-16 17-21 24-5 8-7 15-7 18 0 3 1 7 5 11 4 4 11 8 20 12 18 7 44 12 72 12z m-176-38c-3-1-6-3-8-6-5-5-9-12-12-20-7-16-12-38-15-63-3-19-4-40-3-60 4-48 21-99 49-147 25 41 57 74 93 100-37 37-68 85-89 145 2-18 2-42 0-67-3-26-8-49-14-63-3-8-6-13-8-15 0 0 0 0-1 0 0 1-2 2-3 6-2 5-4 13-5 23-3 18-3 44-1 70 3 27 8 49 14 64 3 7 6 12 8 14-2 6-3 13-5 19z m357 0c-2-7-3-13-5-20 2-2 5-7 7-13 6-15 11-37 14-64 3-26 2-52 0-70-2-10-4-18-6-23-1-4-3-5-3-6 0 0 0 0-1 0-2 2-5 7-8 15-6 14-11 37-14 63-2 24-2 46 0 64-22-60-52-107-90-144 36-27 67-60 92-100 30 48 47 99 50 148 1 10 1 19 0 29 0 8-1 17-2 26-2 28-8 52-15 69-3 8-7 15-12 20-2 3-4 5-7 6z m-239-209c-38-27-71-61-96-104 2-4 5-8 8-12 81-65 213-66 295 0 2 3 4 6 7 9-26 43-58 78-96 105-16-14-34-26-53-36l-4-3-5 3c-20 11-38 24-56 38z m-90-138c-8-11-9-19-6-26 2-8 11-17 25-24 29-14 79-22 129-22 50 0 100 8 130 22 14 8 23 16 26 24 2 7 1 15-6 26-85-62-212-62-298 0z"/>
<glyph glyph-name="robe" unicode="&#57354;" d="M256 493c-9-1-18-5-29-13l-73-106 77-37-35 32c50 103 72 101 118 0l-35-31 77 36-73 106c-10 9-19 13-27 13z m82-148l-79-38-4-1-4 1-77 37-105-123 19-14 66-15 29 118 17-8-69-284 93 0 15 265 16-7 18 8 15-266 93 0-70 285 18 8 29-120 72 17 14 13z m-235-161c-1-3-2-7-2-11 0-17 14-30 31-30 4 0 7 0 11 2l7 29z m307 0l-48-11 7-28c4-2 8-2 12-2 17 0 31 13 31 30 0 4-1 8-2 11z"/>
<glyph glyph-name="robot-leg" unicode="&#57355;" d="M49 494c14-21 28-41 43-60 10 3 23 10 35 16 4 3 8 5 12 7-10 12-20 25-30 37z m83 0c11-14 23-28 35-42 3-3 6-7 9-10 21 8 41 11 59 10 18-1 36-5 51-11 22-9 41-22 60-34-17 28-44 57-73 79-3 3-6 5-10 8z m19-51c-4-2-10-5-15-8-10-6-21-12-32-16 3-3 6-6 9-9 18 6 32 14 47 23-2 2-5 5-7 7-1 1-1 2-2 3z m78-9c-12 0-26-2-41-7 15-17 30-34 44-49 19-20 36-36 47-44l26 17 46 32c-25 15-47 31-72 41-15 6-31 11-50 10z m-57-15c-14-8-28-17-46-24 30-31 66-59 113-89l0 0 24 17 0 0c-12 10-27 25-44 43-15 16-31 34-47 53z m192-49l-101-69 114-19 9 37z m-113-85c-22-17-34-36-43-55-10-22-15-44-22-66 4 1 9 2 14 2 2 0 4 0 5 0 7 20 12 39 19 57 8 17 19 33 37 47 9-18 28-31 50-32-11-10-22-21-34-31-19-18-39-36-54-50-4-3-9-7-13-11-3 2-6 2-10 2-13 0-23-9-23-20 0-11 10-20 23-20 13 0 23 9 23 20 0 2 0 3-1 5 4 4 9 7 13 11 15 13 35 31 55 49 39 36 77 72 77 72l0 1-25 4c-7-9-17-14-29-14-17 0-31 10-37 25l-25 4z m-85-178l-23-30-57-13-18-39 73 0c8 23 20 49 39 70-6 3-11 7-14 12z m58-10c-6-4-15-7-24-7-18-18-31-42-40-65l121 0c2 8 2 15-1 22-2 7-7 14-12 22-10 0-20 1-29 2l-6 1z m66-29c3-5 5-10 7-15 3-9 4-18 3-28l107 0 0 32c-14 4-31 6-49 7-22 2-45 3-68 4z m135-20l0-23 38 0z"/>
<glyph glyph-name="shirt" unicode="&#57356;" d="M256 489c-43 0-95-15-127-30-33-14-61-30-80-61-26-40-39-103-30-202 25-9 47-6 70 1-7 33-6 66 2 93 9 29 27 53 53 57l11 2 1-12c0-8 0-17 0-26l0-27c0-36-1-76-5-116 24-7 62-12 100-12l19 0c36 1 70 6 91 13-5 61-5 123-7 172l0 14 13-4c26-6 44-30 53-60 9-27 10-60 3-93 18-6 36-7 54-5l18 3c4 78-6 156-26 193l-19 26c-19 23-44 35-73 46-28 15-77 28-121 28z m0-13c27 0 56-8 80-19-13-11-29-19-46-24l-33-72-28 71c-20 4-39 12-53 25 25 11 54 19 80 19z m2-119l15-22-15-21-14 21z m0-49l15-23-15-21-14 21z m0-49l15-23-15-21-14 21z m0-50l15-22-15-21-14 21z m105-57c-28-9-66-12-105-12-40-1-80 3-109 12 0-8-1-15-2-23 25-9 68-14 110-14 43 1 85 6 108 15-1 7-1 14-2 22z m6-38c-29-10-69-14-111-14-12 0-24 0-36 1l-18 1c-22 2-43 6-60 12-4-23-8-45-14-66 9-5 18-9 28-12l17-4c66-16 150-9 207 14-6 21-10 44-13 68z"/>
<glyph glyph-name="shoulder-armor" unicode="&#57357;" d="M208 455l-16-64-99-14 163-40 163 40-99 14-16 64-27-18-12-48-18 0-12 48z m-139-90l-53-54 48-64 26 26 26 80z m374 0l-47-12 26-80 26-26 48 64z m-309-16l-20-61 14-55 119-66 0 153z m244 0l-113-29 0-153 119 66 14 55z m-234-146l0-56 103-31 0 30z m224 0l-103-57 0-30 103 31z m-224-75l0-57 103-14 0 40z m224 0l-103-31 0-40 103 14z"/>
<glyph glyph-name="shoulder-scales" unicode="&#57358;" d="M290 490l-7-111 2-1c-92-21-194-61-266-111l0 0 0 0 54-105c-19-15-37-31-54-48l0-96 442 0c-9 8-19 15-29 23l21 21c10-13 20-27 29-41l-14-3 26 0 0 244-24-29c-6 9-13 18-21 27l27 57c7-10 12-19 18-29l0 196c-66 7-136 6-203 6z m17-25c16-6 31-13 45-22l-12-78c-12 9-25 17-37 24z m62-33c16-11 31-24 45-37l-24-71c-11 10-22 20-33 28z m60-52c13-15 24-29 35-45l-28-59c-10 12-20 23-31 34z m84-87l0-47 0 46z m-456-43c3 0 5 0 8 0 12 0 25-1 37-2l17-73c-11 1-22 2-33 2l-37 73c3 0 5 0 8 0z m65-4c21-3 41-7 62-12l1-71c-15 4-31 7-46 9z m81-17c19-6 38-13 56-21l-11-65c-15 6-29 11-44 15z m74-28c17-9 34-18 50-28l-20-56c-13 7-27 13-41 19z m66-38c17-11 33-23 48-37l-25-41c-14 9-28 16-42 24z m62-49c13-12 24-24 36-38l-24-24c-12 8-23 16-36 23z"/>
<glyph glyph-name="trap-mask" unicode="&#57359;" d="M196 487c-45-18-69-37-86-87l0-70 0 0 0-10c0-57-1-108-16-163l-2-5 104-124 6 0 2 0c36 15 71 17 107 1l6-4 103 127-1 4c-13 54-13 109-14 165l0 9 0 0 0 70c-15 43-44 71-86 87-42-21-82-19-123 0z m-55-102l45 0 48-55-93 0z m188 0l45 0 0-55-93 0z m-167-107l0 0 35-86 33 82 27-66 27 66 34-82 34 85 17-41 17 42 1 0c1-40 3-81 13-121l-10-12-31 35-4-79-15-18-38 50-10-78c-4 1-9 2-13 2l-22 53-21-53c-5-1-10-2-14-3l-10 78 0 0-37-49 1-2-18 21-4 78-31-35-10 12c11 41 14 81 15 121l17-42 17 42z"/>
<glyph glyph-name="t-shirt" unicode="&#57360;" d="M32 368l48-64 64 32-16-304c64-16 192-16 256 0l-16 304 64-32 48 64-112 96-48 16c-16-64-112-64-128 0l-48-16z"/>
<glyph glyph-name="stegosaurus-scales" unicode="&#57361;" d="M182 434c-1 0-1-1-2-2-3-4-7-11-11-19-8-15-18-37-27-58-9-22-18-45-24-63-3-9-6-17-7-23-2-6-2-11-2-11 0-7 8-21 21-35 12-13 27-25 42-33l23 3c-8 36-13 77-11 130l18 0c-2-53 3-92 11-127l17 3c13 12 27 29 36 46 11 17 16 35 15 41 0 0-1 4-3 10-3 6-7 13-11 20-9 16-21 35-34 54-12 18-25 36-36 48-5 7-10 12-13 15-1 1-1 1-2 1z m226-24c0-1-1-1-2-2-3-2-8-7-14-13-11-12-25-28-38-45-13-17-26-34-36-49-5-7-9-14-12-19-3-5-4-9-4-9-1-5 3-21 12-37 8-15 20-31 32-42l23-3c14 36 20 73 24 110l18-2c-4-37-10-74-23-111l14-2c15 7 31 19 43 31 13 12 22 26 23 31 0 0 0 5-1 10-1 6-3 13-6 22-5 16-12 37-19 57-8 20-16 40-23 54-3 7-7 13-9 17-1 1-1 1-2 2z m-91-18c0 0-1-1-2-2-4-2-8-7-14-12-9-9-19-21-30-34 4-6 8-13 12-19 4-8 8-15 11-21 1-2 1-3 2-4 2 4 4 7 7 11 10 15 22 32 36 49-4 6-7 11-10 16-4 6-7 11-10 14-1 1-1 2-2 2z m-219-23c-1 0-1-1-2-2-3-3-6-9-10-15-7-14-15-32-23-50-1-1-1-2-1-3 10-8 19-17 27-25 1-1 2-2 4-3 0 1 0 1 0 2 2 7 5 16 8 25 5 16 12 34 20 53-3 2-5 4-7 6-6 5-10 9-14 11-1 1-1 1-2 1z m396-27c-1-1-2-2-3-3-7-6-14-14-23-23 4-11 8-22 10-31 3-9 5-17 6-23 0-1 1-2 1-3 3 4 6 8 9 12z m-476-30l0-166 37 13c12 13 23 30 30 46 8 16 11 32 10 35 0-1-2 3-5 7-3 4-8 9-13 14-12 11-26 24-42 37-5 5-11 9-17 14z m270-64c-2-4-4-8-6-12-11-19-26-38-42-52l-2-2-69-11-2 1c-19 9-36 24-50 39-3 2-5 4-7 7-2-7-5-14-8-21-9-18-21-37-35-52l-2-2-47-16 0-20c3 3 6 6 9 9 10 8 23 14 35 16 2 0 4 0 6 0 0 0 1 0 2 0 8 0 17-2 24-5 6-3 11-6 14-10 4-5 7-12 6-18-2-11-8-19-17-25-8-6-18-10-29-12-10-2-21-2-31 0-7 2-14 6-19 11l0-55 405 0c-1 2-2 4-2 6-3 8-1 17 3 24 4 7 10 12 17 17 12 8 27 13 41 14 1 0 1 0 2 0 1 0 2 0 3 0 2-1 5-1 7-1l0 74c-7 8-14 17-19 26-7 10-12 19-14 29-1-1-2-2-3-3-15-14-33-27-51-36l-3-1-66 10-2 2c-15 13-28 31-38 48-4 7-7 14-10 21z m206-6l0 0c-5-7-9-12-12-17-3-4-4-8-4-7 0-3 3-17 12-31 1-2 3-4 4-6z m-206-89c9 0 17-1 24-2 10-2 22-5 33-9 5-3 9-5 13-9 2-3 3-5 4-9 1-3 0-7-2-10-5-9-14-13-24-17-11-3-23-4-35-4-25-1-50 3-66 15-3 3-6 6-6 10-1 4 0 7 1 10 2 6 7 10 12 13 12 8 27 11 43 12 1 0 2 0 3 0z m3-18c-16-1-31-3-40-9-2-1-3-3-4-4 10-6 33-12 54-11 11 0 22 1 30 4 6 2 10 4 12 6-1 1-3 3-6 4-8 4-19 7-28 8-4 1-10 1-15 2-1 0-2 0-3 0z m-224-21c-1 0-2 0-3 0-7-1-18-6-26-12-4-3-6-7-8-9-1-3-1-4 0-6 2-3 5-6 12-7 6-2 15-2 23 0 8 1 16 5 22 9 5 4 8 8 9 12 0 2 0 2-1 4-2 2-4 4-8 5-5 3-12 4-18 4-1 0-2 0-2 0z m417-53c-9 0-23-5-33-11-6-4-10-8-12-11-2-4-2-6-1-9 1-5 6-9 13-12 0 0 0 0 0 0l43 0 0 41c-3 1-6 1-8 2 0 0-1 0-2 0z"/>
<glyph glyph-name="spiked-shoulders" unicode="&#57362;" d="M310 494l1-31 61-114-4 129-9 16z m135-3l-41-171c-16-3-32-6-47-11l-122 128 50-166c-14-11-27-23-39-37l-169 51 127-120c-7-16-12-33-15-51l-170-41 183-43 183 43-153 37c2 13 6 25 11 37l152-46-114 108c9 9 18 18 29 26l109-115-45 149c11 3 23 6 35 8l36-152 44 183z m-379-46l67-109 109-67-67 109z m-48-235l0-47 20-11 128-3-113 60z"/>
<glyph glyph-name="skirt" unicode="&#57363;" d="M103 484c-4-14-5-26 0-41 57 3 104 5 144 5 67 1 116-2 162-5 4 13 2 25-1 40-68-4-187-1-305 1z m169-54c-8 0-16 0-25 0-23 0-48-1-76-2-22-45-24-89-30-135-8 43-3 94-1 134-12-1-24-2-37-2-46-132-79-261-77-383 16-3 31-6 45-8-1 22 4 65 21 92-6-30-1-64 3-95 18-2 35-3 51-3 2 77 0 125 25 204 0-78 6-148 24-202 27 2 52 5 77 9 29 4 57 8 85 11 1 48-9 120-7 194 25-64 39-126 45-192 28 1 59-1 91-7 2 76-25 262-74 373 3-61 7-121-1-158-14 55-24 106-42 167-29 2-60 3-97 3z"/>
</font>
</defs>
</svg>
